<svg xmlns="http://www.w3.org/2000/svg"><defs><font id="Bringin" horiz-adv-x="433"><font-face font-family="Bringin" font-weight="400" ascent="750" descent="-250" x-height="493" cap-height="707" bbox="-1123 -453.184 1990 1095.95" underline-thickness="50" underline-position="-100" unicode-range="U+0020-007D"/><glyph glyph-name="B_r" unicode="Br" horiz-adv-x="1077" d="M1148 81l9-22C880-105 760 93 818 393c-16-7-32-9-47-8-18-37-51-84-94-121 4-27-2-60-22-101-88-179-423-270-447 42-341 167-224 539 75 565 294 26 366-147 180-398 38 7 162-1 202-72 32 31 56 69 67 99-48 32-73 112-27 210l88-50c-68-189 37-169 50-66 14-4 115-34 109-58-76-318-35-480 196-354zM218 302c18 106 71 262 106 336 91-24 104-53 101-63-12-38-83-234-95-383 96-18 184 6 253 46-19 33-73 52-180 38-24 11-22 47-9 65 159 219 148 331-35 331-320-1-427-326-149-434 2 17 6 53 8 64zM437 36c79 27 153 108 154 169-68-36-183-52-265-33C323 69 348 6 437 36z"/><glyph glyph-name="y_r" unicode="yr" horiz-adv-x="796" d="M206-208C70-344-109-101 174-33c14 56 30 143 39 213C104-180-80 89 39 541c90-28 112-45 109-58-50-181-47-380-10-371 38 10 92 241 98 383 0 13 119-30 118-40 0-12-2-39-5-76 42-14 82 6 102 33-48 32-73 112-27 210l88-51c-68-188 37-169 50-65 14-5 115-34 109-58-76-319-35-480 196-354l9-23C599-92 479 106 537 406c-19-8-37-10-54-7-25-32-74-68-136-46-13-143-37-457-141-561zM165-66C60-99 45-163 65-182c18-18 65 2 100 116z"/><glyph glyph-name="f_r" unicode="fr" horiz-adv-x="837" d="M577 393c-18-8-37-10-54-7C506 159 394-20 263-56c-108-429-461-67-111 20 19 73 30 160 40 252-83-7-74-7-97 56 0 0 40-22 100-24 7 77-2 402 137 379 124-21 77-236-5-365 32 6 62 14 86 22 1-12 0-22-6-24-32-10-61-20-98-29-9-83-18-158-36-243 144 46 220 285 229 405-55 27-87 111-38 216l88-51c-68-188 37-169 50-65 15-5 115-34 109-58-75-319-34-480 197-354l9-23C639-105 519 93 577 393zM313 274c80 133 73 300 53 295-35-9-50-254-53-295zM141-80C50-108 27-160 35-186c10-31 65-25 106 106z"/><glyph glyph-name="v_r" unicode="vr" horiz-adv-x="738" d="M398 397zM95 123c26 88 125 328 172 387 0 0 8 2 18 0 19 0 40-9 38-27-10-86 24-135 56-72-39 37-54 111-13 198l88-50c-68-189 37-169 50-66 15-4 115-34 109-57-76-319-35-481 196-355l9-22C541-105 421 93 479 393c-29-12-58-10-81 4-59-98-114 1-112 50 1 3 1 4 0 7-66-93-144-285-178-446-9-17-76-3-86 27-32 98-27 323 10 468 92-28 117-46 112-58-18-50-45-208-49-322z"/><glyph glyph-name="j_r" unicode="jr" horiz-adv-x="767" d="M330 500c-149 19-88 214-88 214 93-15 112-49 110-62-4-44-16-108-22-152zm177-107C449 93 569-105 847 59l-10 22C606-45 565 116 641 435c6 24-94 53-109 58-13-104-118-123-50 66l-88 50c-46-98-21-178 27-210-20-26-58-45-99-33 3 37 5 64 6 76 0 13-55 27-119 40-1-105-19-374-58-526-350-87 4-439 113-10 29 128 44 263 56 393 60-19 109 16 133 47 17-3 35-1 54 7zM142-77C105-196 56-213 40-192c-17 21 1 83 102 115z"/><glyph glyph-name="b_r" unicode="br" horiz-adv-x="814" d="M252 444C177 524 47 86 172 88c61 2 148 285 80 356zm302-47c-18-7-37-9-54-6-21-27-59-56-107-52 5-144-82-316-173-334C4-39-14 216 8 373c19 127 67 300 102 389 91-28 104-64 101-76-18-69-42-148-61-227 18 24 38 43 60 54 51 27 103 5 140-42 22-29 35-65 40-104 33-2 62 16 78 37-48 32-73 112-27 210l88-51c-68-188 37-169 50-65 15-5 115-34 109-58-76-319-35-480 197-355l9-22C616-100 496 98 554 397z"/><glyph glyph-name="k_r" unicode="kr" horiz-adv-x="831" d="M321 483s-66-74-103-160c-8-88 28-195 89-242C424-9 491 325 496 394c-55 27-86 111-37 216l87-51c-67-188 38-169 51-65 14-5 114-34 109-58-76-319-35-481 196-355l9-22C634-104 513 94 572 393c-19-8-37-9-55-6-4-53-32-370-181-376-106-5-156 69-184 143-16-45-33-94-50-147-6-17-76-3-85 27-53 188 37 557 102 723 91-28 106-64 101-76-43-104-116-443-126-559 36 105 133 361 180 362 25 1 34-1 47-1z"/><glyph glyph-name="u_r" unicode="ur" horiz-adv-x="884" d="M624 398c-18-8-37-10-54-6-9-119-13-374-152-372-105 1-179 97-172 267C145-236-91 24 39 517c91-28 113-45 109-58-49-181-42-364-6-354 47 12 103 331 127 409 90-28 112-45 109-58-47-199-49-337 13-381 133-97 154 274 158 324-55 26-87 110-38 216l88-51c-68-189 37-169 50-66 15-4 115-33 109-57-76-319-35-481 196-355l10-22C686-99 566 98 624 398z"/><glyph glyph-name="e_r" unicode="er" horiz-adv-x="763" d="M503 397c-18-8-37-10-54-7C438 248 384 44 223 6-34-56-77 401 141 501c164 77 305-78-33-330C126-77 404 60 428 398c-55 26-87 110-38 215l88-50c-68-189 37-169 50-66 15-5 115-34 109-58-75-319-34-480 197-354l9-22C565-101 445 97 503 397zM110 213c134 124 162 189 146 205-21 22-131-56-146-205z"/><glyph glyph-name="h_r" unicode="hr" horiz-adv-x="867" d="M607 393c-18-8-37-10-54-6-9-126-30-371-158-374-201-5-178 287-177 302-39-63-69-166-116-308C89-8 26 4 17 34c-53 188 37 557 102 723 91-28 106-64 101-76-43-105-116-443-126-559 36 105 133 361 180 362 25 1 84-22 81-33-50-213-49-355 26-389C505 6 527 329 532 394c-55 26-87 110-38 215l88-50c-68-189 37-169 50-66 15-4 115-34 109-57-76-319-35-481 197-355l9-22C669-105 549 93 607 393z"/><glyph glyph-name="r_r" unicode="rr" horiz-adv-x="780" d="M138 393C48 354-44 461 25 610l88-51c-68-189 37-169 50-66 15-4 115-33 109-57C151-76 413-73 445 394c-54 26-86 111-37 216l88-51c-68-189 37-169 50-66 14-4 114-33 109-57-76-319-35-481 196-355l9-22C583-104 463 93 521 393c-19-8-37-10-54-6-7-89-50-381-169-387C151-7 95 169 138 393z"/><glyph glyph-name="o_r" unicode="or" horiz-adv-x="778" d="M339 430C95 527 56 56 185 72c92 12 140 160 125 229-6 1-11 2-18 3-106 14-47 129 17 102 31-13 45-41 49-75 35 9 60 36 75 55-48 32-73 112-27 210l88-50c-68-189 37-169 50-66 14-4 114-34 109-57-76-319-35-481 196-355l9-22C581-118 461 80 519 380c-19-8-37-10-55-6-18-25-48-63-105-72-1-41-12-84-21-113C305 83 231-6 121-1-38 6-48 394 144 492c58 30 122 32 164-13 12-13 23-30 31-49z"/><glyph glyph-name="g_r" unicode="gr" horiz-adv-x="835" d="M217 428c-91-37-123-291-68-318 112-54 171 359 68 318zm358-35c-18-8-37-10-54-6-23-31-71-66-130-48-11-130-25-264-54-391-109-429-464-77-114 9 8 34 16 74 23 117C209 25 159-5 99 1-42 16-34 404 140 493c52 26 106 25 142-17 0 12 0 22 1 32 63-14 119-28 118-41s-3-51-7-102c39-10 76 9 96 34-49 32-74 112-28 210l88-50c-68-189 37-169 50-66 15-4 115-34 109-58-75-318-34-480 197-354l9-22C637-105 517 93 575 393zM214-76c-101-32-119-93-102-114 16-21 65-4 102 114z"/><glyph glyph-name="d_r" unicode="dr" horiz-adv-x="942" d="M217 428c-91-36-123-290-68-317 113-55 165 356 68 317zm466-35c-19-8-37-10-54-6-8-101-21-366-185-370-80-2-135 43-162 120C244 54 182-7 99 2-42 16-34 404 140 493c53 27 110 26 145-20 1-1 2-3 3-4 23 107 57 222 83 289 90-29 104-64 101-77-26-99-63-217-83-330-9-56-43-304 71-288 111 16 140 224 148 331-55 26-87 110-38 215l88-50c-68-189 37-169 50-66 15-4 115-34 109-57-76-319-35-481 196-355l9-22C745-105 625 93 683 393z"/><glyph glyph-name="q_r" unicode="qr" horiz-adv-x="853" d="M217 444c-91-37-123-291-68-318 110-53 170 358 68 318zm376-51c-18-8-37-10-54-6-24-32-72-67-133-48-20-74-42-155-56-232-32-190-10-347 93-342l5-20C276-303 212-136 224 66c-34-34-76-54-125-49-141 15-133 403 41 492 53 27 110 25 145-21 9-12 17-27 23-43 8 26 17 49 24 69 91-29 104-64 101-77-6-23-13-47-20-73 39-9 75 11 94 35-48 32-73 112-27 210l88-50c-68-189 37-169 50-66 15-4 115-33 109-57-76-319-35-481 197-355l9-22C655-105 535 93 593 393z"/><glyph glyph-name="c_r" unicode="cr" horiz-adv-x="776" d="M196 55c174 0 235 206 245 345-55 26-87 110-38 215l88-50c-68-189 37-169 50-66 15-4 115-34 109-57-76-319-35-481 197-355l9-22C578-99 458 99 516 399c-18-8-37-10-54-6C448 212 373-18 146 1c-194 16-192 376-9 492 57 35 127 34 180 5l-59-96C104 437 29 56 196 55z"/><glyph glyph-name="t_r" unicode="tr" horiz-adv-x="735" d="M421 386C411 252 365 59 257 14 94-55-4 115 22 333c5 46 16 95 28 144-30 7-49 13-49 13l-1 28s23-5 58-10c17 64 36 123 52 165 90-28 104-63 101-76-9-34-19-68-28-100 37-1 76 1 110 8l2-44c-38-8-82-8-123-4-12-48-24-95-31-146-23-146-7-239 54-267C304-4 390 261 400 394c-55 26-87 110-38 215l88-50c-68-189 37-170 50-66 15-5 115-34 109-58-76-319-35-480 197-354l9-22C537-105 417 93 475 393c-18-8-37-10-54-7z"/><glyph glyph-name="m_r" unicode="mr" horiz-adv-x="1082" d="M479 484c25 1 83-22 81-33-39-162-47-283-16-347 22-44 54-58 94-24 72 63 105 247 109 314-54 26-86 110-37 215l88-50c-68-189 37-169 50-66 14-4 114-34 109-57-76-319-35-481 196-355l9-22C885-105 765 93 823 393c-19-8-37-10-54-6-5-63-28-212-78-302C639-8 542-20 476 64s-54 240-54 251c-48-78-59-139-89-223-14-38-23-75-59-35-73 81-60 247-60 258-39-63-69-166-116-308-8-16-76-3-84 27-28 98-12 323 33 468 90-28 113-45 109-57-21-51-56-209-65-323 36 105 132 361 179 362 26 1 84-22 82-33-27-113-39-206-34-274 44 120 120 306 161 307z"/><glyph glyph-name="n_r" unicode="nr" horiz-adv-x="851" d="M538 387C528 260 526 40 403 14 192-29 214 300 214 315 175 252 145 149 98 7 81-9 22 4 14 34c-28 98-12 323 32 468 91-28 114-45 110-57-21-51-56-209-65-323 36 105 132 361 179 362 26 1 84-22 82-33-50-208-50-349 21-387C492 1 512 337 516 394c-54 26-86 110-37 215l88-50c-68-189 37-169 50-66 14-4 114-34 109-57-76-319-35-481 196-355l9-22C654-105 534 93 592 393c-19-8-37-10-54-6z"/><glyph glyph-name="a_r" unicode="ar" horiz-adv-x="896" d="M217 427c-91-36-123-290-68-317 113-55 162 355 68 317zm419-34c-18-8-36-10-54-6-7-96-34-267-100-334-79-80-170-6-201 81C243 52 181-8 99 1-42 15-34 403 140 492c53 27 110 26 145-20 1-2 2-3 3-5 4 14 8 27 12 41 90-28 112-45 109-58C288-60 533-10 561 394c-55 26-87 110-37 215l87-50c-68-189 37-169 50-66 15-4 115-33 110-57-76-319-35-481 196-355l9-22C699-105 578 93 636 393z"/><glyph glyph-name="i_r" unicode="ir" horiz-adv-x="671" d="M412 394c-19-7-37-9-55-6C348 257 343 6 179 0 6-7-43 218 41 494c91-28 112-45 109-58C95 206 98 57 194 40c113-5 134 241 142 355-55 27-86 111-37 216l87-51c-67-188 38-169 51-65 14-5 114-34 109-58-76-319-35-480 196-355l9-22C474-103 353 95 412 394zm-247 88c-145 39-57 224-57 224 90-29 103-64 100-77-10-43-31-104-43-147z"/><glyph glyph-name="p_r" unicode="pr" horiz-adv-x="837" d="M276 439C201 519 71 81 195 83c62 1 148 285 81 356zm301-46c-18-8-37-10-54-7-20-26-59-56-107-52C423 169 307-33 204 2c-44 15-73 47-90 88C88-74 81-235 89-258c4-13-78 6-84 39-21 107 28 614 82 767 46-4 120-26 114-39-3-7-7-20-12-36 14 15 29 27 44 35 52 27 104 4 140-42 23-29 36-65 41-104 32-1 61 16 78 37-49 32-74 112-28 210l88-50c-68-189 37-169 50-66 15-5 115-34 109-58-75-319-34-480 197-354l9-22C639-105 519 93 577 393z"/><glyph glyph-name="l_r" unicode="lr" horiz-adv-x="682" d="M368 387C359 268 306-11 163 0 34 10-20 154 8 351c18 127 71 315 107 405 90-29 104-64 100-77-25-99-67-233-87-345-76-443 199-319 219 60-55 27-87 111-38 216l88-51c-68-188 37-169 50-65 15-5 115-34 109-58-76-319-35-480 196-354l10-23C484-104 364 94 422 394c-19-8-37-10-54-7z"/><glyph glyph-name="w_r" unicode="wr" horiz-adv-x="950" d="M610 397zM331 123c20 88 104 328 148 387 0 0 7 2 18 0 18 0 40-9 38-27-10-86 24-135 56-72-39 37-54 111-13 198l88-50c-68-189 37-169 50-66 15-4 115-34 109-57-76-319-35-481 196-355l9-22C753-105 633 93 691 393c-29-12-58-10-81 4-60-100-115 4-111 53-60-94-125-283-148-442-10-17-76-3-88 27-28 71-40 209-33 335-46-101-89-240-107-362-9-17-76-3-88 27-38 98-46 323-18 468 93-28 119-46 115-58-15-50-33-208-29-322 19 83 96 306 142 380 93-28 119-46 115-58-15-50-33-208-29-322z"/><glyph glyph-name="C_r" unicode="Cr" horiz-adv-x="945" d="M588 409c-40 37-57 111-15 200l88-50c-68-189 37-169 50-66 14-4 115-34 109-58-76-318-35-480 196-354l9-22C748-105 628 93 686 393c-25-11-49-10-70-2C580 194 451 14 252-5-81-36-74 537 217 716c48 30 99 43 145 41 229-9 234-354-97-273 255 32 259 225 141 224C148 703 10-3 353 65c149 30 214 195 235 344z"/><glyph glyph-name="D_r" unicode="Dr" horiz-adv-x="1125" d="M412 576c-11-38-76-238-94-381 0 0 106-31 219-18 69 193 24 510-241 493C6 651-49 352 197 238c2 17 6 54 8 65 18 106 71 262 107 336 90-23 104-53 100-63zm453-183c-14-6-28-9-42-8-25-113-103-173-191-203C588 94 516 26 417 5 275-26 205 75 196 205-142 372 7 750 270 771c368 30 473-328 372-567 67 30 126 87 149 189-55 26-88 111-38 216l87-50c-68-189 37-169 51-66 14-4 114-34 109-57-76-319-35-481 196-355l9-22C928-105 807 93 865 393zM530 159c-52-7-157-10-216 3-3-92 22-155 110-125 45 15 81 61 106 122z"/><glyph glyph-name="E_r" unicode="Er" horiz-adv-x="873" d="M613 393c-19-8-38-10-55-6 2-118-100-463-419-376-196 54-180 350 19 446-174 153 20 384 223 304 73-29 116-151-22-164 55 76 61 151-38 152-144 1-195-188 9-319C164 417 26 128 203 32c107-58 335 117 316 373-43 35-62 112-19 204l88-50c-68-189 37-169 50-66 15-4 115-34 109-57-76-319-35-481 196-355l10-22C675-105 555 93 613 393z"/><glyph glyph-name="G_r" unicode="Gr" horiz-adv-x="989" d="M218 68C375-6 399 339 399 432c64-14 120-27 119-40-7-126-21-259-46-384 87 86 167 264 163 398-42 35-62 111-18 203l87-50c-68-189 37-169 50-66 15-4 115-34 109-57-75-319-34-481 197-355l9-22C792-105 671 93 729 393c-20-9-40-10-58-6 4-146-110-342-207-419-1-8-3-15-5-22-108-429-463-77-113 9 12 50 22 106 30 164C338 55 281-12 198-5-13 14-51 342 65 558c97 181 238 209 334 169 201-83 82-326-142-249 163 7 258 207 136 228-86 15-177-92-209-165-57-136-89-415 34-473zM337-78c-114-36-122-109-94-120 21-9 62 17 94 120z"/><glyph glyph-name="H_r" unicode="Hr" horiz-adv-x="1005" d="M500 180c3-170 75-155 166-115 1 1 2-15 2-19C483-55 369 11 380 232c2 27 3 44 8 79-18 2-82 21-123 36-12-54-53-244-67-309C191 0 117-5 59 6c41 127 96 333 106 386C-15 489-20 622 24 694c46 75 182 87 237 11 50-70 37-175 14-310 41-16 81-28 119-37 22 158 63 351 66 370 92-28 124-67 121-79 0 0-44-168-67-317 112-28 137 24 145 68-48 32-73 112-27 209l88-50c-68-189 37-169 50-66 15-4 115-34 109-57-76-319-35-481 197-355l9-22C807-105 687 93 745 393c-21-9-42-10-61-5-18-53-69-109-176-98-6-44-8-75-8-110zM175 434c39 221-36 286-91 269-65-19-105-150 91-269z"/><glyph glyph-name="I_r" unicode="Ir" horiz-adv-x="792" d="M174 180c-1-77 14-119 39-137 67-49 199 263 216 372-35 38-49 110-9 194l88-50c-68-189 37-169 50-66 15-5 115-34 109-58-76-318-35-480 196-354l9-22C595-105 475 93 533 393c-24-10-47-10-68-2C439 308 315 13 211 1 102-12 43 67 55 232c5 61 27 184 27 184-19-1-40-1-61-1-5 0-16 68-21 70 34-7 64-11 92-12 25 97 47 176 89 243 147 173 332-185 31-279-20-89-37-187-38-257zm49 303c127 34 145 153 120 192-22 33-77 6-120-192z"/><glyph glyph-name="J_r" unicode="Jr" horiz-adv-x="870" d="M146-75c18 58 28 89 41 149C121 28-5-108 36-179c20-34 74 1 110 104zm464 468c-34-15-69-8-95 13-32-37-93-47-146-38-43-241-93-527-209-605-61-42-124-17-148 28C-42-91 115 99 202 154c23 72 49 245 50 253-209 127-86 429 110 327 75-39 26-246 15-313 10-10 91-23 121 4-29 40-37 106-1 184l88-50c-68-189 37-169 50-66 15-4 115-34 109-58-75-318-34-480 197-354l9-22C672-105 552 93 610 393zm-350 73c14 68 41 251-24 246-75-5-98-185 24-246z"/><glyph glyph-name="M_r" unicode="Mr" horiz-adv-x="1303" d="M279 211zm764 182c-15-7-31-9-46-8-6-91-104-438-265-377-63 24-98 99-95 223 2 74 9 138 25 237-38-38-206-301-243-197-41 111-66 216-81 280-15-97-29-195-48-291 44-15 54-28 48-76-20 11-40 20-59 27-12-52-26-100-42-132-134-255-418 156-69 194 29 139 48 287 62 428 2 19 135 56 140 15 11-90 55-302 81-365 9-24 211 252 248 366 12 35 131-48 126-68 0 0-69-325-63-483 14-326 191 43 203 229-53 29-82 112-34 214l87-50c-68-189 37-169 51-66 14-4 114-34 109-57-76-319-35-481 196-355l9-22c-277-164-398 34-340 334zM158 232C-22 226 7 75 63 66c52-8 86 129 95 166z"/><glyph glyph-name="P_r" unicode="Pr" horiz-adv-x="1103" d="M843 393c-21-9-42-10-61-5-47-182-248-300-388-109-17-1-34-1-51-1-10-45-19-86-28-116C255-40 134-51 0 80c1 4 16 17 17 16 72-66 112-93 168 59 14 37 27 90 39 148-66 34-40 92 19 102 22 132 36 257 36 257 1 12 44 36 139 31-3-15-26-165-55-315 23-9 56-41 57-41 184 67 199 373-58 408-155 21-266-146-198-296-51 12-71 48-73 58-46 219 330 378 517 202 110-103 71-302-82-391-22-12-46-22-70-28 133-152 269-51 304 108-50 31-76 112-29 211l87-50c-68-189 37-169 50-66 15-4 115-34 110-57-76-319-35-481 196-355l9-22C906-105 785 93 843 393zm-615-69c4 20 8 39 11 59-36-11-52-43-11-59zm139-2c-2 2-3 5-5 7-2 3-4 7-7 10-1-7-2-14-3-20z"/><glyph glyph-name="S_r" unicode="Sr" horiz-adv-x="824" d="M298 739c-139-5-133-160-83-245 47-81 115-120 151-210 0-1 4-11 4-11 56 10 104 55 120 120-56 26-88 111-39 216l88-50c-68-189 37-169 50-66 15-4 115-34 109-58-76-318-35-480 197-354l9-22C626-105 506 93 564 393c-15-6-29-9-43-8-21-66-72-125-146-130C414 117 335 8 190-1c-218-15-303 286 47 270-21 31-55 57-80 88-66 83-106 186-72 291 28 86 109 124 195 121 190-6 180-314-62-217 187 50 181 191 80 187zm-51-488C-28 247 24-20 174 30c80 27 117 135 73 221z"/><glyph glyph-name="T_r" unicode="Tr" horiz-adv-x="883" d="M355 180c5-331 156 43 182 220-48 31-73 111-27 209l88-50c-68-189 37-169 50-66 15-4 115-34 109-58-76-318-35-480 196-354l10-22C685-105 565 93 623 393c-18-8-36-10-53-7C548 249 433-43 323 4c-61 25-94 106-89 228 6 122 78 377 102 432-100 33-191 74-253 28-98-72-25-230 168-233 12 0-32-69-103-56-176 31-207 272-27 332 185 61 374-102 626-17-17-34-40-76-74-90-70-30-167-5-241 13-12-49-80-317-77-461z"/><glyph glyph-name="U_r" unicode="Ur" horiz-adv-x="1082" d="M823 393c-13-5-25-8-37-8C774 275 669-12 561 1c-61 7-101 51-113 132C308-59 89-62 111 232c4 55 15 124 30 200C39 453 1 532 1 597 0 790 351 862 280 492c0 0 42 15 50 16 6 2 12-70-64-79-20-90-35-178-36-249-3-302 196-66 220 98 12 79 83 428 88 450 90-28 122-67 118-79 0 0-90-310-92-469 0-68 11-108 31-129 29-31 135 101 157 340-57 24-93 110-42 218l87-50c-67-189 38-169 51-66 14-4 114-34 109-57-76-319-35-481 196-355l9-22C885-105 764 93 823 393zM143 494c9-2 8-2 8-2 35 207-27 240-74 209-54-37-89-161 66-207z"/><glyph glyph-name="Y_r" unicode="Yr" horiz-adv-x="976" d="M215 71c137-44 195 542 196 636 63-14 119-27 118-40-11-216-46-473-95-689 175 54 197 271 202 418-52 29-80 112-33 213l88-50c-68-189 37-169 50-66 15-4 115-34 109-57-75-319-34-481 197-355l9-22C778-105 658 93 716 393c-15-7-31-9-46-8C659 233 608 5 425-57l-2-9C311-476-34-130 313-45c12 50 36 188 43 246C344 122 278-9 195-2-12 17 93 411 97 454-26 542-15 667 39 716c66 61 212 55 216-9 3-58-22-150-36-233 0 0 56-16 75-21-27-58-80-37-85-36-28-104-49-328 6-346zM108 515c0-2 23 122 24 125 24 100-35 100-76 54-38-41-33-132 52-179zM304-78c-102-32-119-94-101-115 16-20 64-2 101 115z"/><glyph glyph-name="t_t" unicode="tt" horiz-adv-x="553" d="M623 81l10-22C506-15 411-14 352 37 121-76 13 82 43 334c8 61 22 126 40 191-63 20-82 37-82 37l-1 32s30-18 92-39c12 41 26 81 39 119 91-29 104-64 101-77-6-24-13-48-20-73 32-6 68-11 107-15 18 63 37 123 52 165 91-28 104-64 101-76-9-35-17-62-26-95 0 0 59 4 121 26l5-32c-60-27-136-26-136-26-12-48-26-108-34-159C367 78 425-27 623 81zM204 495c-17-61-32-121-42-184C130 98 175-8 333 57c-47 58-64 157-49 277 5 45 15 95 27 144-41 5-76 11-107 17z"/><glyph glyph-name="a_z" unicode="az" horiz-adv-x="834" d="M707-56c-101-28-122-85-109-116 16-39 85-37 109 116zM280 133C243 52 180-8 98 1-42 15-34 403 140 492c53 27 109 26 144-20l4-5c3 14 7 27 11 41 91-29 112-45 109-58C288-56 528-10 560 382c-60 35-87 128-37 210l88-51c-74-193 95-123 103-64 15-4 89-49 71-63 0 0-97-147-92-151 90-86 137-178 130-303-15-133-119-227-202-211-88 17-119 193 90 232-3 133-132 193-131 197 14 50 90 151 114 217-41-28-81-33-113-22-9-98-37-256-100-320-79-80-169-6-201 80zm-63 294c-91-36-123-290-68-317 112-55 161 355 68 317z"/><glyph glyph-name="b_z" unicode="bz" horiz-adv-x="757" d="M631-56c-98-27-121-81-111-112 13-43 85-46 111 112zM390 367c29-2 56 12 73 30-45 42-61 123-16 195l87-51c-74-193 96-123 104-64 14-4 88-49 70-63 0 0-96-147-92-151 90-86 138-179 130-303-14-133-119-227-201-211-89 17-119 193 90 232-4 133-132 193-131 197 13 50 90 151 113 217-47-33-93-34-128-16-22-23-55-44-96-40 5-144-82-316-173-334C4-39-14 215 8 373c19 127 67 300 102 389 91-28 104-64 101-76-18-70-42-148-61-227 18 24 38 43 60 54 51 27 103 4 140-42 22-29 35-65 40-104zm-138 77C177 524 47 86 172 88c61 1 148 285 80 356z"/><glyph glyph-name="c_z" unicode="cz" horiz-adv-x="714" d="M588-56c-122-34-127-109-98-131 25-20 77 3 98 131zM137 493c57 35 127 34 180 5l-59-96C104 437 29 56 196 55c167 0 230 190 243 328-59 35-86 127-35 209l87-51c-74-193 96-123 104-64 14-4 89-49 70-63 0 0-96-147-92-151 90-86 138-178 130-303-14-133-119-227-201-211-89 17-119 193 90 232-4 133-132 193-131 197 13 50 90 151 114 217-42-28-82-33-115-22C443 196 365-17 146 1c-194 16-192 376-9 492z"/><glyph glyph-name="d_z" unicode="dz" horiz-adv-x="873" d="M217 427c-91-36-123-290-68-317 112-55 165 356 68 317zM746-56c-131-37-127-121-90-135 27-11 72 18 90 135zm116 16c-15-133-119-227-202-211-88 17-119 193 90 232-3 133-132 193-131 197 14 50 90 151 114 217-38-26-75-32-106-24-8-110-27-351-184-355-80-2-134 43-162 120C244 53 181-8 98 1-42 15-34 403 139 492c53 27 110 26 145-20l3-4c23 107 57 221 83 289 91-29 104-64 101-77-26-99-63-217-82-330-10-56-44-304 70-288 107 15 138 206 147 316-65 32-96 128-44 214l88-51c-74-193 95-123 103-64 15-4 89-49 71-63 0 0-97-147-92-151 90-86 137-178 130-303z"/><glyph glyph-name="e_z" unicode="ez" horiz-adv-x="704" d="M578-56C458-90 451-163 478-186c25-21 79-1 100 130zM140 501c164 77 305-78-33-330C125-74 396 57 426 385c-57 36-82 126-32 207l87-51c-74-193 96-123 104-64 14-4 88-49 70-63 0 0-96-147-92-151 90-86 138-179 130-303-14-133-119-227-201-211-89 17-119 193 90 232-4 133-132 193-131 197 13 50 90 151 113 217-42-29-83-33-117-21C433 232 377 43 222 6-35-56-77 401 140 501zm-31-288c139 129 164 194 145 207-26 16-130-62-145-207z"/><glyph glyph-name="f_z" unicode="fz" horiz-adv-x="777" d="M651-46c-111-32-125-96-105-124 21-31 82-19 105 124zM308 233c-9-80-18-154-35-236 140 45 216 273 228 396-59 36-84 127-34 208l88-50c-75-194 95-124 103-64 14-5 89-49 70-64 0 0-96-146-92-151 90-86 138-178 130-303-14-133-119-227-201-211-89 17-119 193 90 233-3 132-132 193-131 197 13 49 90 151 114 217-43-29-83-34-116-22C502 161 391-11 263-47c-109-429-461-67-111 20 19 74 30 160 39 252-82-7-74-7-96 56 0 0 40-21 99-23 7 76-1 401 138 378 126-21 74-246-11-374 32 7 61 14 85 22 1-12 1-21-5-23-31-11-59-20-93-28zm4 44c80 134 74 307 54 301-35-9-50-259-54-301zM140-70C40-102 22-163 38-184c16-22 66-5 102 114z"/><glyph glyph-name="g_z" unicode="gz" horiz-adv-x="776" d="M649-52c-121-34-126-109-98-131 26-20 78 2 98 131zM140 496c51 27 106 26 142-17v32c64-13 120-27 119-40s-3-51-8-102c37-10 72 6 92 29-48 41-65 124-20 198l88-51c-74-193 95-123 103-64 15-4 89-49 71-63 0 0-96-147-92-151 90-86 137-178 130-303-15-133-119-227-201-211-89 17-120 193 89 232-3 133-132 193-131 197 14 50 91 151 114 217-45-31-89-34-123-18-26-28-69-54-122-39-11-130-26-263-55-390-108-430-461-69-111 18 9 33 14 65 21 108C209 29 159-2 99 5-42 19-34 407 140 496zm9-382c112-55 170 358 68 317-91-36-123-290-68-317zm65-186c-98-31-117-89-104-112 15-25 66-11 104 112z"/><glyph glyph-name="h_z" unicode="hz" horiz-adv-x="799" d="M672-56c-139-39-126-131-84-137 27-4 67 29 84 137zM274 484c25 0 83-23 81-33-51-213-49-356 26-390C497 9 524 291 530 379c-64 32-94 128-42 213l88-51c-74-193 95-123 103-64 15-4 89-49 71-63 0 0-96-147-92-151 90-87 137-179 130-303-15-133-119-227-201-211-89 16-120 193 89 232-3 133-132 193-131 197 14 50 90 151 114 217-39-27-76-32-108-24-9-129-33-355-157-358-201-6-177 287-177 301-38-63-69-165-116-307C89-9 25 3 17 33c-53 188 36 558 102 724 90-29 106-65 101-77-43-104-117-442-126-558 36 104 133 360 180 362z"/><glyph glyph-name="i_z" unicode="iz" horiz-adv-x="610" d="M165 481c-146 39-58 224-58 224 91-28 104-64 101-76-10-44-31-105-43-148zm304-218c89-86 137-178 130-303-15-133-120-227-202-211-89 17-119 193 90 232-3 133-132 193-131 197 13 50 90 151 114 217-41-28-81-33-114-22C347 239 337 6 179 0 5-7-43 217 41 494c90-29 112-45 109-58C95 205 98 56 193 39c110-4 133 225 142 343-60 36-87 128-36 210l88-51c-74-193 95-123 103-64 15-4 89-49 71-63 0 0-97-147-92-151zm-82-452c26-16 76 8 96 133-125-35-127-113-96-133z"/><glyph glyph-name="j_z" unicode="jz" horiz-adv-x="706" d="M579-52c-106-30-124-90-107-120 19-35 83-27 107 120zM330 505c-149 18-88 213-88 213 93-15 112-48 110-61-4-45-16-108-22-152zm-121-19c64-13 119-27 119-40-1-11-3-39-6-76 37-11 73 4 94 27-49 41-67 124-21 199l88-51c-74-193 95-123 103-64 14-4 89-49 70-63 0 0-96-147-92-151 90-86 138-178 131-303-15-133-120-227-202-211-89 17-119 193 90 232-3 133-132 193-131 197 13 50 90 151 114 217-45-31-88-34-122-19-26-28-71-54-124-36-11-122-24-276-56-393-109-430-463-78-113 9 39 152 57 421 58 526zM142-73C28-109 20-182 48-194c20-9 62 17 94 121z"/><glyph glyph-name="k_z" unicode="kz" horiz-adv-x="770" d="M643-56c-112-31-125-97-104-125 22-29 82-15 104 125zM274 484c25 1 34-1 47-1 0 0-66-75-103-160-8-88 28-195 89-243C418-5 485 294 495 382c-60 36-86 128-36 210l88-51c-74-193 95-123 103-64 15-4 89-49 71-63 0 0-97-147-92-151 90-86 137-179 130-303-15-133-119-227-202-211-88 17-119 193 90 232-3 133-132 193-131 197 14 50 90 151 114 217-41-28-81-33-114-22-7-80-41-356-180-362-106-5-156 69-184 142-16-44-33-93-50-146-6-17-76-3-85 27-53 188 37 557 102 723 91-28 106-64 101-76-43-104-117-443-126-559 36 105 133 361 180 362z"/><glyph glyph-name="l_z" unicode="lz" horiz-adv-x="624" d="M497-55c-113-32-125-99-104-126 23-28 82-14 104 126zM8 351c18 127 70 316 105 405 91-28 105-64 101-76-26-100-67-234-86-346-76-439 194-321 217 51-57 37-81 127-32 207l88-50c-74-194 95-124 103-64 15-5 89-49 71-64 0 0-97-146-92-151 90-86 137-178 130-303-15-133-119-227-202-211-88 17-119 193 90 233-3 132-132 193-131 197 14 49 90 151 114 217-43-30-84-34-118-21C355 250 300-10 163 0 33 10-21 154 8 351z"/><glyph glyph-name="m_z" unicode="mz" horiz-adv-x="1019" d="M892-56C776-89 766-159 791-184c24-25 80-7 101 128zM544 104c22-45 54-58 94-24 68 59 101 226 108 301-61 35-89 128-38 211l88-51c-74-193 95-123 103-64 15-4 89-49 71-63 0 0-96-147-92-151 90-86 137-179 130-303-15-133-119-227-201-211-89 16-120 193 89 232-3 133-132 193-131 197 14 50 90 151 114 217-40-28-79-33-112-23-6-69-30-203-76-287C639-8 542-20 476 64s-54 240-54 251c-48-79-59-139-89-223-14-39-23-75-59-36-73 82-60 248-60 259-39-63-69-166-116-308-8-16-76-3-84 27-28 98-12 323 33 468 90-28 113-45 109-57-21-51-56-209-65-323 36 105 132 361 179 362 26 1 84-22 82-33-27-113-39-206-34-274 44 120 120 306 161 307 25 1 83-22 81-33-39-162-47-283-16-347z"/><glyph glyph-name="n_z" unicode="nz" horiz-adv-x="788" d="M661-56C544-89 535-159 560-184c24-25 80-7 101 128zM271 484c25 0 83-22 81-33-50-209-49-350 22-387C485 4 510 298 516 381c-62 34-90 127-39 211l88-51c-74-193 95-123 103-64 15-5 89-49 71-64 0 0-97-146-92-150 90-87 137-179 130-304-15-133-119-226-202-211-88 17-119 194 90 233-3 133-132 193-131 197 14 50 90 151 114 217-40-28-79-33-111-23-9-128-15-333-134-358-210-44-189 286-189 300-38-62-69-165-115-307C81-9 22 3 14 33c-28 99-11 324 33 469 90-28 114-46 109-58-21-50-56-208-65-322 36 104 133 360 180 362z"/><glyph glyph-name="o_z" unicode="oz" horiz-adv-x="723" d="M597-68c-105-29-123-88-108-118 18-37 84-31 108 118zm115 16c-14-133-119-227-201-211-89 17-119 193 90 233-4 132-132 192-131 196 13 50 90 152 113 217-46-32-91-34-126-17-19-24-48-55-98-63-2-41-13-84-22-113C304 84 230-5 120 0-38 7-49 395 143 493c58 30 122 32 164-13 13-13 23-30 31-49C94 528 55 57 184 73c92 12 140 160 125 229-5 1-11 2-17 3-106 14-48 129 16 102 32-13 45-41 49-75 34 8 58 33 73 52-46 42-62 123-17 196l87-50c-74-194 96-124 104-65 14-4 89-49 70-63 0 0-96-147-92-151 90-86 138-178 130-303z"/><glyph glyph-name="p_z" unicode="pz" horiz-adv-x="783" d="M276 441C201 521 71 82 195 85c62 1 148 284 81 356zM656-56c-120-34-126-107-99-130 25-22 78-1 99 130zm116 15c-15-133-119-226-202-211-88 17-119 194 90 233-3 133-132 193-131 197 14 50 90 151 114 217-47-33-93-34-128-17-22-23-56-46-99-42C423 170 307-32 204 4c-44 15-73 47-90 88C88-72 81-233 89-257c4-13-78 7-84 39-21 107 28 615 82 767 46-4 120-26 114-38-3-8-7-20-12-37 14 15 29 27 44 35 52 27 104 5 140-42 23-29 36-65 41-103 30-2 57 13 74 33-45 42-60 122-16 195l88-51c-74-193 95-123 103-64 15-5 89-49 71-64 0 0-96-146-92-150 90-87 137-179 130-304z"/><glyph glyph-name="q_z" unicode="qz" horiz-adv-x="781" d="M216 443c-91-36-123-291-68-317 110-54 170 358 68 317zM654-40c-109-31-124-94-106-122 21-33 83-23 106 122zm116 15c-15-132-119-226-202-211-88 17-119 194 90 233-3 133-132 193-131 197 14 50 90 151 114 217-37-26-73-32-103-25-24-31-72-66-132-47-21-75-43-155-56-233-33-190-11-347 92-341l5-21C275-304 211-136 223 65c-34-34-76-54-125-49-140 15-133 403 41 492 53 27 110 26 145-21 9-12 17-26 23-43 8 26 17 50 24 69 91-28 104-64 101-76-6-24-13-48-20-73 39-9 75 10 94 34-60 36-86 128-36 210l88-51c-74-193 95-123 103-64 15-4 89-49 71-63 0 0-97-147-92-151 90-87 137-179 130-304z"/><glyph glyph-name="r_z" unicode="rz" horiz-adv-x="716" d="M589-56C470-89 462-162 489-186c25-21 79-1 100 130zM138 393C48 354-45 461 25 609l87-50c-67-189 38-169 51-66 14-4 114-33 109-57C151-71 407-73 444 381c-62 34-90 128-39 211l88-51c-74-193 95-123 103-64 15-4 89-49 71-63 0 0-97-147-92-151 89-86 137-178 130-303-15-133-120-227-202-211-88 17-119 193 90 232-3 133-132 193-131 197 13 50 90 152 114 217-40-27-79-33-111-23C455 270 411 6 297 0 151-7 94 169 138 393z"/><glyph glyph-name="t_z" unicode="tz" horiz-adv-x="684" d="M558-54c-121-34-127-109-99-131 26-20 78 1 99 131zM399 391c-52 39-73 125-25 202l87-50c-74-194 96-124 104-64 14-5 89-49 70-64 0 0-96-146-92-151 90-86 138-178 130-303-14-133-119-227-201-211-89 17-119 193 90 233-4 132-132 193-131 197 13 49 90 151 114 217-46-32-90-34-125-19-11-134-58-318-163-363C94-54-4 116 22 335c5 45 16 95 28 144-30 7-49 13-49 13l-1 28s23-5 58-11c17 64 36 124 52 166 90-28 104-64 101-76-9-35-19-68-28-101 37-1 76 1 110 9l2-44c-38-9-82-9-123-5-12-47-24-95-31-145-23-147-7-240 54-267C303-2 389 257 399 391z"/><glyph glyph-name="u_z" unicode="uz" horiz-adv-x="827" d="M700-50c-123-34-127-111-97-132 26-18 77 5 97 132zM548 391c-57 37-81 127-32 207l88-51c-74-193 95-123 103-64 15-4 89-49 71-63 0 0-97-147-92-151 90-86 137-178 130-303-15-133-119-227-202-211-88 17-119 193 90 232-3 133-132 193-131 197 14 50 90 151 114 217-43-29-85-33-118-21-9-122-17-361-151-359-105 1-180 96-172 267C144-235-91 22 38 516c91-29 113-46 109-58-49-181-41-362-5-353 47 13 103 331 127 410 90-29 112-45 109-58-48-199-49-337 13-382 127-92 152 243 157 316z"/><glyph glyph-name="v_z" unicode="vz" horiz-adv-x="673" d="M95 122c26 88 125 328 172 387 21 5 53-1 50-26-10-83 22-132 53-77-39 44-49 119-8 186l88-51c-74-193 95-123 103-64 15-4 89-49 71-63 0 0-96-147-92-151 90-86 137-178 130-303-15-133-119-227-201-211-89 17-120 193 89 232-3 133-132 193-131 197 14 50 90 151 114 217-56-38-109-33-146-5-55-84-106 5-107 54-64-95-139-281-172-437-9-17-76-3-86 27-32 98-27 323 10 468 92-28 117-46 112-57-18-51-45-209-49-323zM546-56C431-88 420-157 444-183s81-9 102 127z"/><glyph glyph-name="w_z" unicode="wz" horiz-adv-x="888" d="M331 122c21 89 105 328 149 387 20 5 55 0 52-26-10-83 22-131 53-76-39 44-49 118-8 185l88-50c-74-194 95-124 103-64 15-5 89-49 71-64 0 0-97-146-92-151 90-86 137-178 130-303-15-133-119-227-202-211-88 17-119 193 90 233-3 132-132 193-131 197 14 49 90 151 114 217-56-39-109-34-146-6-55-83-105 2-107 52-58-96-120-280-144-435-9-16-76-3-87 27-28 71-40 210-34 336-45-101-88-241-107-363-8-16-75-3-87 27-39 98-47 324-19 468 94-28 119-45 116-57-16-50-33-208-30-323 20 84 97 306 142 380 94-28 119-45 116-57-16-50-33-208-30-323zM761-55C647-87 635-155 658-182s81-12 103 127z"/><glyph glyph-name="y_z" unicode="yz" horiz-adv-x="741" d="M614-52c-111-31-125-96-105-124 22-30 82-17 105 124zM236 486c0 13 119-30 118-40 0-11-2-38-5-75 40-13 78 4 99 29-47 41-63 123-18 196l88-51c-74-193 95-123 103-64 14-4 89-49 70-63 0 0-96-147-92-151 90-86 138-178 131-303-15-133-120-227-202-211-89 17-119 193 90 232-3 133-132 193-131 197 13 50 90 151 114 217-47-32-91-34-126-17-26-29-72-57-128-37-13-141-36-421-123-534C87-366-115-95 180-19c14 56 24 121 33 191C104-189-80 80 39 532c90-28 112-45 109-57-50-181-47-381-10-371 38 10 92 240 98 382zM169-60C56-96 47-169 74-181c21-9 63 17 95 121z"/><glyph glyph-name="B_z" unicode="Bz" horiz-adv-x="1001" d="M860 254c90-86 138-178 130-303-14-133-119-227-201-211-89 17-119 193 90 232-4 133-132 193-131 197 13 50 90 151 113 217-37-25-73-32-103-25-19-32-47-67-81-97 3-27-3-60-23-101-88-179-422-271-446 41-341 168-224 540 74 566 294 26 366-148 181-398 37 7 161-1 202-73v1c24 23 44 51 57 77-56 37-80 126-31 206l87-51c-74-193 96-123 104-64 14-4 89-49 70-63 0 0-96-147-92-151zm-643 48c18 105 72 262 107 336 90-24 104-53 101-64-12-37-83-233-96-383 96-17 184 7 254 46-19 33-73 53-180 38-25 12-23 47-9 66 159 219 147 331-35 330-320-1-427-326-150-433 2 17 6 52 8 64zM436 36c80 26 154 107 154 169-68-36-183-52-265-33C323 69 348 6 436 36zm336-228c24-26 81-9 103 127-116-32-126-101-103-127z"/><glyph glyph-name="C_z" unicode="Cz" horiz-adv-x="877" d="M750-62c-125-36-127-114-96-133 27-17 76 8 96 133zM585 388c-47 42-64 124-19 198l88-51c-74-193 95-123 103-64 14-5 89-49 70-64 0 0-96-146-92-151 90-86 138-178 131-303-15-133-120-227-202-211-89 17-119 193 90 233-3 132-132 193-131 197 13 50 90 151 114 217-46-32-90-34-125-18C570 182 444 15 253-3-80-34-74 539 217 718c49 30 99 43 146 41 229-9 233-354-97-272 255 31 258 225 141 223C149 705 11-1 354 67c141 29 207 179 231 321z"/><glyph glyph-name="D_z" unicode="Dz" horiz-adv-x="1059" d="M412 575c-12-38-76-238-94-382 0 0 106-31 219-18 68 194 24 511-241 493C5 650-49 351 197 237c2 17 6 54 8 65 18 106 71 262 106 336 91-24 105-53 101-63zM933-66c-122-34-127-109-98-131 26-19 77 3 98 131zm115 16c-14-133-119-227-201-211-89 17-119 193 90 232-4 133-132 193-131 197 13 50 90 152 114 217-37-25-73-32-103-25-30-98-104-151-186-179C588 93 516 25 417 4 275-27 205 73 196 204-142 371 7 749 270 770c368 29 473-329 371-567h1c63 28 118 79 144 169-61 35-88 127-37 210l87-51c-74-193 96-123 104-64 14-4 89-49 70-63 0 0-96-147-92-151 90-86 138-178 130-303zM530 158c-53-7-157-11-216 3-4-92 22-155 110-125 45 15 81 61 106 122z"/><glyph glyph-name="E_z" unicode="Ez" horiz-adv-x="799" d="M672-64C558-96 547-164 569-190c23-27 81-12 103 126zM557 362C546 227 437-69 140 12-57 65-41 361 158 457c-174 154 20 385 223 304 73-29 116-150-22-163 55 76 61 151-38 152-144 1-194-188 9-320C164 418 26 129 203 33c103-56 318 103 318 344-58 36-82 126-33 207l88-51c-74-193 95-123 103-64 15-4 89-49 71-63 0 0-97-147-92-151 90-86 137-179 130-303-15-133-119-227-202-211-88 17-119 193 90 232-3 133-132 193-131 197 14 50 90 151 114 217-36-25-72-32-102-25z"/><glyph glyph-name="G_z" unicode="Gz" horiz-adv-x="920" d="M793-61c-132-37-126-122-89-136 27-9 71 20 89 136zM218 72C375-2 399 342 400 436c63-14 119-27 118-40-6-126-21-259-45-384 81 81 157 242 162 372-52 39-73 126-26 203l88-51c-74-193 95-123 103-64 15-4 89-49 71-63 0 0-96-147-92-151 90-86 138-178 130-303-15-133-119-227-201-211-89 17-120 193 90 232-4 133-133 193-132 197 14 50 91 151 114 217-39-27-77-32-109-24-8-143-115-322-207-395-1-7-3-14-4-21-109-429-464-78-114 9 13 50 23 106 30 164C339 58 282-9 199-1-13 18-50 345 65 561c98 181 239 209 334 170 201-84 82-326-142-249 163 6 258 207 136 228-85 14-177-92-208-166-58-135-90-414 33-472zM337-74c-121-38-122-119-88-122 22-2 59 28 88 122z"/><glyph glyph-name="H_z" unicode="Hz" horiz-adv-x="933" d="M807-67c-128-36-128-117-94-134 27-14 74 12 94 134zM500 177C502 7 574 22 665 62c1 1 2-15 2-19C482-58 369 8 380 229c1 27 2 44 7 79-17 3-82 21-123 36-12-54-53-244-67-309C190-3 116-8 58 3c41 127 97 333 107 386C-16 486-21 619 24 692c45 74 182 86 236 10 50-70 37-175 15-309 40-17 81-29 118-38 22 158 64 352 67 370 91-28 124-67 121-79 0 0-45-168-68-317 93-24 127 9 139 46-55 38-78 126-30 206l88-51c-74-193 96-123 103-64 15-5 89-49 71-64 0 0-96-146-92-151 90-86 138-178 130-303-15-133-119-227-201-211-89 17-120 193 90 233-4 132-133 193-131 197 13 50 90 151 113 217-43-30-85-34-119-21-24-45-74-85-167-76-6-44-8-75-7-110zM174 431c41 235-44 293-101 265-59-29-85-152 101-265z"/><glyph glyph-name="I_z" unicode="Iz" horiz-adv-x="719" d="M593-66c-126-35-127-114-96-133 27-16 76 9 96 133zM174 179c-1-78 14-119 39-137 62-46 181 221 211 346-45 43-59 122-15 194l87-51c-74-193 96-123 104-64 14-4 89-49 70-63 0 0-96-147-92-151 90-86 138-179 130-303-14-133-119-227-201-211-89 17-119 193 90 232-4 133-132 193-131 197 13 50 90 151 113 217-45-31-88-34-122-19C420 262 307 10 210-1 102-13 43 66 55 231c5 61 27 183 26 183-19-1-39-1-60 0-5 0-16 67-21 69 34-6 64-10 92-12 25 98 47 176 89 244 147 173 332-186 31-280-20-88-38-187-38-256zm48 302c143 38 149 183 111 202-26 14-73-30-111-202z"/><glyph glyph-name="J_z" unicode="Jz" horiz-adv-x="819" d="M146-66c18 57 28 89 41 148C121 36-5-100 37-171c19-34 74 1 109 105zm546 10C574-89 566-161 592-185c24-23 79-4 100 129zm116 16c-15-133-119-227-201-211-89 16-120 193 89 232-3 133-132 193-131 197 14 50 91 151 114 217-60-42-117-33-154 2-34-35-96-40-156-21-42-240-93-526-208-604-62-42-125-18-149 27-54 118 103 309 190 363 23 72 49 246 50 254-209 127-86 428 110 327 75-39 26-246 15-313 10-11 98-36 131-14-32 44-38 113 0 176l88-51c-74-193 95-123 103-64 15-4 89-49 71-63 0 0-96-147-92-151 90-86 138-179 130-303zM260 475c15 67 41 250-24 246-75-6-98-186 24-246z"/><glyph glyph-name="M_z" unicode="Mz" horiz-adv-x="1245" d="M1103 252c90-86 138-178 131-303-15-133-120-227-202-211-89 17-119 193 90 233-3 132-132 193-131 197 13 50 90 151 114 217-40-28-78-33-110-24C978 246 883-51 733 6c-64 24-99 99-96 223 2 74 10 138 25 237-37-38-205-301-243-197-41 111-66 216-81 280-15-97-29-195-48-291 45-14 54-28 49-76-20 11-40 20-59 27-12-52-26-100-43-131-133-256-418 155-69 193 30 139 48 287 62 428 2 19 136 56 141 15 11-90 55-302 80-365 10-24 211 252 249 366 11 35 130-48 126-68 0 0-70-325-64-483 13-316 180 21 202 212-56 38-79 126-30 206l88-51c-74-193 95-123 103-64 14-5 89-49 70-64 0 0-96-146-92-151zM63 64c53-8 86 129 95 166C-22 224 7 74 63 64zm950-255c22-30 82-17 105 125-111-32-125-97-105-125z"/><glyph glyph-name="P_z" unicode="Pz" horiz-adv-x="1043" d="M917-60c-109-30-125-93-106-122 20-32 83-22 106 122zM185 159c14 38 27 91 39 149-66 34-41 92 19 102 22 132 36 257 36 257 1 12 44 36 139 31-3-15-26-165-55-315 23-9 56-41 56-41 184 67 200 373-58 408-154 21-265-146-197-297-51 13-71 49-73 59-46 219 330 377 516 202 111-103 72-303-81-391-22-12-46-22-71-28 130-147 261-58 301 92-51 40-70 125-23 201l87-50c-74-194 96-124 104-65 14-4 88-49 70-63 0 0-96-147-92-151 90-86 138-178 130-303-14-133-119-227-201-211-89 17-119 193 90 233-4 132-132 193-131 197 13 49 90 151 113 217-47-33-92-35-127-17-55-172-247-275-382-91-17-1-34-2-51-1-10-46-20-86-29-116C255-35 134-46 0 85c1 4 16 17 17 16 72-66 111-93 168 58zm43 170c4 19 8 39 11 59-36-12-52-43-11-59zm139-3c-2 3-4 5-5 8-2 3-5 6-7 9-1-6-2-13-4-19 5 1 11 1 16 2z"/><glyph glyph-name="S_z" unicode="Sz" horiz-adv-x="761" d="M634-64c-128-36-127-117-94-134 27-14 75 13 94 134zM298 740c-139-6-132-161-83-246 47-80 115-119 151-210 0-1 4-10 4-10 50 9 94 46 114 101-58 36-84 127-34 209l88-51c-74-193 95-123 103-64 15-4 89-49 70-63 0 0-96-147-91-151 89-86 137-179 130-303-15-133-120-227-202-211-89 17-119 193 90 232-3 133-132 193-131 197 13 50 90 151 114 217-39-27-77-32-108-24-25-56-72-103-137-108C414 118 335 8 191-1c-219-14-304 287 46 271-21 30-55 57-80 88-66 82-106 186-72 290 28 87 109 124 195 122 190-6 181-314-62-217 188 50 181 190 80 187zm-50-489C-28 248 24-19 174 31c80 27 117 134 74 220z"/><glyph glyph-name="T_z" unicode="Tz" horiz-adv-x="818" d="M692-64c-122-35-127-110-98-132 25-19 77 3 98 132zM355 180c6-319 147 17 180 200-54 39-75 126-27 204l87-51c-74-193 96-123 104-64 14-5 88-49 70-64 0 0-96-146-92-151 90-86 138-178 130-303-14-133-119-226-201-211-89 17-119 193 90 233-4 132-132 193-131 197 13 50 90 151 113 217-40-28-79-33-111-23C537 219 428-41 323 4c-60 25-94 106-88 228s77 377 102 432c-100 33-191 74-253 28-98-72-25-230 168-233 12 0-32-69-104-56-176 31-206 272-26 332 185 61 374-102 626-17-17-33-41-76-74-90-70-30-167-5-241 13-12-49-80-317-78-461z"/><glyph glyph-name="U_z" unicode="Uz" horiz-adv-x="1031" d="M904-64c-135-38-126-126-88-137 28-7 70 23 88 137zM564 180c-1-68 11-108 31-129 27-30 130 96 155 327-55 37-79 126-30 206l88-51c-74-193 95-123 103-64 15-5 89-49 71-64 0 0-97-146-92-150 90-87 137-179 130-304-15-133-119-226-202-211-88 17-119 194 90 233-3 133-132 193-131 197 14 50 90 151 114 217-39-27-77-33-109-24C761 241 661-11 561 1c-62 7-101 51-114 132C307-59 89-62 111 233c4 54 15 123 29 199C39 453 1 532 0 597c0 193 350 265 279-105 0 0 42 15 50 17 6 1 12-71-63-80-21-90-36-177-37-249-2-302 197-66 221 98 11 79 83 428 87 451 90-29 122-68 119-80 0 0-91-310-92-469zM142 494l9-2c33 197-22 237-68 213-58-31-102-163 59-211z"/><glyph glyph-name="Y_z" unicode="Yz" horiz-adv-x="914" d="M411 715c63-13 119-27 118-40-11-216-46-472-95-689 167 52 195 253 201 399-56 37-80 127-31 207l87-51c-74-193 96-123 104-64 14-4 89-49 70-63 0 0-96-147-92-151 90-86 138-178 130-303-14-133-119-227-201-211-89 17-119 193 90 232-4 133-132 193-131 197 13 50 90 151 113 217-38-26-74-32-106-24-15-152-69-360-243-419l-2-9C311-468-34-122 313-36c12 50 36 188 43 245C344 131 278 0 195 7-12 26 93 420 97 462-26 550-15 675 39 725c66 61 212 54 216-10 3-58-22-149-36-232 0 0 56-17 75-21-27-58-80-38-85-36-28-105-49-328 6-346 137-44 195 542 196 635zM108 524c0-3 23 121 24 124 24 101-35 101-76 55-38-41-33-133 52-179zM788-56c-134-37-127-124-89-136 28-8 71 22 89 136zM304-69c-99-31-118-90-103-113s65-8 103 113z"/><glyph glyph-name=".notdef" horiz-adv-x="300"/><glyph glyph-name="k" unicode="k" horiz-adv-x="402" d="M321 483s-66-74-103-160C204 162 293-49 514 94l8-19C291-61 193 46 152 154c-16-45-33-94-50-147-6-17-76-3-85 27-53 188 37 557 102 723 91-28 106-64 101-76-43-104-116-443-126-559 36 105 133 361 180 362 25 1 34-1 47-1z"/><glyph glyph-name="g" unicode="g" horiz-adv-x="432" d="M217 427c-91-36-123-290-68-317 112-55 171 358 68 317zM337-52c-109-429-464-78-114 9 8 34 16 74 23 117C209 25 159-6 99 1-42 15-34 403 140 492c52 27 106 26 142-16 0 11 0 22 1 31 63-13 119-27 118-40-9-166-27-357-64-519zM214-76c-97-31-117-89-104-112 15-25 66-11 104 112z"/><glyph glyph-name="l" unicode="l" horiz-adv-x="275" d="M346 81l9-22C90-97-31 76 8 352c18 127 72 315 107 404 90-28 104-64 101-76-26-100-68-233-88-346C85 84 141-31 346 81z"/><glyph glyph-name="y" unicode="y" horiz-adv-x="385" d="M354 433c-8-155-36-571-161-674C59-351-100-120 174-52c15 55 30 141 39 211C104-202-80 67 39 519c90-28 112-45 109-57-50-181-47-381-10-371 38 10 92 240 98 382 0 13 119-30 118-40zM165-85C67-116 48-175 62-198c15-23 66-9 103 113z"/><glyph glyph-name="p" unicode="p" horiz-adv-x="452" d="M276 440C200 520 71 81 195 84c61 1 148 284 81 356zM89-257c4-13-78 6-84 39-21 107 28 614 82 766 46-4 120-26 114-39-3-7-7-19-12-36 14 15 29 27 44 35 52 27 103 5 140-42C494 312 337-43 204 3c-44 15-73 47-90 88C88-73 81-233 89-257z"/><glyph glyph-name="h" unicode="h" horiz-adv-x="481" d="M552 97l9-22C183-148 217 297 218 315c-39-63-69-166-116-308-7-16-76-3-85 27-53 188 37 557 102 723 91-28 106-64 101-76-43-105-116-443-126-559 36 105 133 361 180 362 25 1 84-22 81-33-76-319-35-480 197-354z"/><glyph glyph-name="f" unicode="f" horiz-adv-x="410" d="M264-40c-109-429-463-78-113 9 18 74 32 170 42 263-83-8-74-8-97 55 0 0 40-21 100-23 7 76-2 402 137 378 123-21 77-235-5-364 30 6 58 14 81 21 1-12 1-21-6-24-30-10-59-19-93-27-11-97-24-193-46-288zm48 333c80 133 75 297 55 291-35-9-51-250-55-291zM142-64C42-95 24-155 39-178c16-22 65-6 103 114z"/><glyph glyph-name="s" unicode="s" horiz-adv-x="363" d="M119 244c-11 93-15 282 107 265 44-6 96-29 107-77 26-119-73-294-73-299C291-118 223-240 0-79l21 19c208-144 119 130 98 304zm133-68c67 159 59 240 38 246-23 8-63-75-38-246z"/><glyph glyph-name="t" unicode="t" horiz-adv-x="291" d="M362 81l9-22C112-94-10 68 22 334c5 45 15 95 28 143-30 8-49 14-49 14l-1 27s23-5 57-10c18 64 37 124 52 166 91-29 105-64 101-77-9-34-18-67-27-100 37-1 76 1 110 8l2-44c-39-8-82-8-123-4-13-47-24-95-32-146C105 77 163-27 362 81z"/><glyph glyph-name="j" unicode="j" horiz-adv-x="357" d="M329 496c-150 18-89 214-89 214 94-16 112-49 111-62-4-44-16-108-22-152zM264-40c-109-429-463-78-113 9 39 152 56 404 57 509 63-14 119-27 118-40-8-155-27-327-62-478zM142-64C48-94 26-148 37-173c12-28 65-18 105 109z"/><glyph glyph-name="i" unicode="i" horiz-adv-x="275" d="M346 81l9-22C47-122-67 140 40 493c91-28 112-45 109-57C74 117 115-45 346 81zM165 481c-146 39-58 224-58 224 90-29 104-64 101-77-11-43-31-104-43-147z"/><glyph glyph-name="b" unicode="b" horiz-adv-x="432" d="M252 444C177 524 47 86 172 88c61 2 148 285 80 356zm-102 15c18 24 38 43 60 54 51 27 103 5 140-42C458 332 342 30 220 5 4-39-14 216 8 373c19 127 67 300 102 389 91-28 104-64 101-76-18-69-42-148-61-227z"/><glyph glyph-name="d" unicode="d" horiz-adv-x="536" d="M217 427c-91-36-123-290-68-317 113-55 165 356 68 317zM607 97l9-22C439-30 326 13 282 136 244 53 182-8 99 1-42 15-34 403 140 492c53 27 110 26 145-20 1-1 2-3 3-4 23 107 57 222 83 289 90-29 104-64 101-77-26-99-63-217-83-330-43-250 13-365 218-253z"/><glyph glyph-name="r" unicode="r" horiz-adv-x="406" d="M477 81l9-22C209-105 89 93 147 393c-16-7-31-9-46-8-4-49-34-174-87-268-4 11-9 22-14 33 35 75 64 174 68 245-53 29-82 112-34 214l88-50c-68-189 37-169 50-66 15-4 115-34 109-57-76-319-35-481 196-355z"/><glyph glyph-name="q" unicode="q" horiz-adv-x="438" d="M217 442c-91-36-123-290-68-317 110-53 170 358 68 317zm226-678l5-21C276-305 212-137 224 64c-34-34-76-53-125-48-141 14-133 402 41 491 53 27 110 26 145-20 9-12 17-27 23-44 8 26 17 50 24 69 91-28 104-64 101-76-26-100-63-218-83-331-32-189-10-347 93-341z"/><glyph glyph-name="o" unicode="o" horiz-adv-x="395" d="M339 431C95 528 56 57 185 73c92 12 141 163 125 231-130 4-69 132-1 104 76-32 48-156 29-218C305 85 231-5 121 0-38 7-48 395 144 493c58 30 122 32 164-12 12-14 23-30 31-50z"/><glyph glyph-name="n" unicode="n" horiz-adv-x="477" d="M548 97l9-22C179-148 214 297 214 315 175 252 145 149 98 7c-6-17-76-3-84 27-28 98-12 324 33 469 90-29 113-46 109-58-21-50-56-208-65-323 36 105 132 361 179 362 26 1 84-22 82-33-76-319-35-480 196-354z"/><glyph glyph-name="e" unicode="e" horiz-adv-x="344" d="M393 144l11-21c-3-2-65-48-68-50C-50-203-94 381 156 497c164 76 305-79-33-330 0-151 70-159 200-73 3 2 67 48 70 50zm-267 65c147 137 166 202 140 208-32 7-126-70-140-208z"/><glyph glyph-name="c" unicode="c" horiz-adv-x="348" d="M397 148l11-21c-3-2-65-48-68-50C-46-198-90 340 144 487c57 36 126 35 179 5l-59-95C81 438 10-112 327 98c3 2 67 48 70 50z"/><glyph glyph-name="m" unicode="m" horiz-adv-x="685" d="M479 484c25 1 83-22 81-32-76-319-35-481 196-355l9-22C629-5 546 1 496 43c-7 7-14 14-20 22-66 83-54 240-54 250-48-78-59-138-89-222-14-39-23-75-59-36-73 81-60 247-60 258-39-63-69-165-116-308-19-17-76-3-84 27-28 98-12 324 32 469 91-29 114-46 110-58-21-50-56-208-65-323 36 105 132 361 179 362 26 1 84-22 82-32-27-114-39-207-34-275 44 120 120 306 161 307z"/><glyph glyph-name="x" unicode="x" horiz-adv-x="352" d="M3 47c38 50 76 105 110 163C19 350-10 478 4 508c22 4 60-12 60-12-11-50 7-133 73-243 37 72 71 155 88 232 3 14 34 15 127-18-30-95-91-212-154-308 0 0 87-99 151-136L326 5c-57 36-111 83-148 123C140 73 103 28 73 3 52-15 3 47 3 47z"/><glyph glyph-name="z" unicode="z" horiz-adv-x="343" d="M214-52c-234-64-44-273 0 0zm118 15c-15-132-121-225-205-209C37-230 6-54 218-15 215 117 84 177 85 181c14 49 92 150 116 215C64 305-55 461 27 592l89-50c-75-192 97-123 105-64 15-4 91-49 72-63 0 0-98-146-93-150 91-86 140-178 132-302z"/><glyph glyph-name="w" unicode="w" horiz-adv-x="470" d="M331 122c20 89 104 328 148 387 0 0 28 7 54-16-66-61-154-295-182-486-10-16-76-3-88 27-28 71-40 210-34 336-45-101-88-241-106-363-9-16-76-3-88 27-38 98-46 324-18 468 93-28 119-45 115-57-15-51-33-209-29-323 19 83 96 306 142 380 93-28 119-45 115-57-15-51-33-209-29-323z"/><glyph glyph-name="B" unicode="B" horiz-adv-x="724" d="M426 574c-11-38-75-216-93-359 37-2 69 0 88 6 21 6-27-63-49-65-8-1-24 1-44 6-4-93 22-156 110-127 146 49 273 281-33 240-25 12-23 47-10 66 160 219 148 331-34 330-320-1-437-336-150-434 2 18 6 53 8 65 18 105 71 262 107 336 90-24 104-53 100-64zM210 204c-7 3-13 6-19 10-331 160-186 531 93 556 294 25 366-148 180-398 55 10 290-12 192-209-88-179-422-271-446 41z"/><glyph glyph-name="K" unicode="K" horiz-adv-x="635" d="M147 173c8 23 15 51 22 83C50 196 29 119 46 88c16-30 67-19 101 85zm157 141C283 209 252 19 140-1 91-10 26 14 8 64c-39 111 93 197 171 239 35 177 51 417 51 417 1 13 44 40 138 37-2-17-26-223-54-388 122 115 153 190 208 374 2 8 63 5 92 10-43-239-156-344-270-416C477 286 529 98 665 23c0 0-99-34-136-13-91 49-129 220-225 304z"/><glyph glyph-name="Z" unicode="Z" horiz-adv-x="574" d="M561 98c-33-66-55-96-89-98-111-6-214 67-245 70-157-241-376 56-80 70 90 150 200 371 265 512C298 536 57 577 83 755c240-152 347-14 367-19 49-12 120-56 114-67-19-35-181-344-313-557 75-24 195-37 310-14zm-441 2C39 98 17 68 24 50c8-20 55-24 96 50z"/><glyph glyph-name="J" unicode="J" horiz-adv-x="412" d="M146-71c18 58 28 89 41 149C121 32-5-105 37-176c19-33 73 2 109 105zm223 442c-42-240-93-526-208-604-62-42-125-17-149 27-54 118 103 309 190 363 23 72 49 246 50 254-209 127-86 429 110 327 75-39 27-238 17-305 0 0 30-12 63-19-34-61-50-49-73-43zm-109 99c14 68 41 250-24 246-75-5-98-185 24-246z"/><glyph glyph-name="C" unicode="C" horiz-adv-x="511" d="M527 119l14-27C9-281-194 452 224 709c48 29 98 43 145 41 229-9 233-354-97-273 255 32 258 225 141 223-293-4-431-928 114-581z"/><glyph glyph-name="D" unicode="D" horiz-adv-x="711" d="M416 572c-12-37-76-217-94-360 38-3 70 0 89 5 21 6-27-62-48-64-9-1-25 1-46 6-3-92 22-155 110-125 186 62 232 655-128 632C67 651-66 420 133 267c20-13 43-24 67-32 2 17 6 53 8 65 18 105 72 262 107 336 90-24 104-53 101-64zM199 202c-10 4-19 9-27 14-318 163-139 533 101 552C792 809 788 81 421 2 278-29 208 71 199 202z"/><glyph glyph-name="L" unicode="L" horiz-adv-x="416" d="M649-19c-31-71-49-92-105-97C410-126 273-15 236-12 115-298-169-2 141 40c61 214 92 573 94 695 65-13 126-40 126-53-9-161-65-503-112-658 150-65 262-68 400-43zM129-5C38-16 17-59 29-79 41-98 86-93 129-5z"/><glyph glyph-name="I" unicode="I" horiz-adv-x="317" d="M174 171C172 0 242 27 333 67c2 1 5-27 5-31C151-65 39 1 55 223c5 61 27 183 26 183-19-1-39-1-60 0-5 0-16 67-21 69 34-7 64-10 92-12 25 98 47 176 89 244 147 172 332-186 31-280-20-89-38-187-38-256zm48 302c129 35 147 156 120 193-22 32-76 3-120-193z"/><glyph glyph-name="T" unicode="T" horiz-adv-x="503" d="M355 179C358 8 433 38 524 79c1 0-1-31-1-35C338-57 224 9 235 231c6 121 77 377 101 431-99 33-191 74-253 28-98-72-25-229 169-233 12 0-33-68-104-56-176 31-207 272-27 332 185 61 374-102 626-17-16-33-40-76-74-90-69-30-167-5-240 13-13-49-81-317-78-460z"/><glyph glyph-name="W" unicode="W" horiz-adv-x="514" d="M361 143c24 96 191 539 237 606 0 0 43 10 69-12-69-71-255-526-290-731-10-19-76-10-86 21-26 74-14 347-4 482-49-112-115-390-137-522-10-18-76-9-87 22-35 102-85 593-52 750 58-15 115-13 109-74-9-102 14-465 14-576 22 90 129 508 177 592 92-23 117-40 113-53-17-55-62-383-63-505z"/><glyph glyph-name="V" unicode="V" horiz-adv-x="326" d="M180 146c26 93 176 544 224 608 0 0 38 10 64-11-71-69-231-535-271-734-10-18-76-9-86 21C79 128 7 495 0 752c61 1 129 4 130-65 1-94-8-267 50-541z"/><glyph glyph-name="Y" unicode="Y" horiz-adv-x="531" d="M215 85c138-44 196 542 196 635 64-13 119-27 119-40-13-230-52-507-106-732-113-411-458-65-111 21 13 50 36 188 44 245-12-78-79-209-162-202C-11 31 93 425 98 467-25 555-15 680 39 730c67 61 212 54 216-10 4-58-22-149-35-232 0 0 56-17 75-21-28-58-80-38-85-36-28-105-49-328 5-346zM109 529c-1-3 22 121 23 124 25 101-34 101-76 55-37-41-33-133 53-179zM304-64c-101-32-118-93-101-115 16-20 65-3 101 115z"/><glyph glyph-name="U" unicode="U" horiz-adv-x="699" d="M564 176C563 5 647 34 727 77c2 0 2-31 2-36-156-83-260-52-281 87C307-64 89-66 111 228c4 55 15 123 30 200C39 448 1 527 1 592 0 786 350 858 280 487c0 0 42 15 50 17 6 1 11-71-64-79-20-91-36-178-36-249-3-303 196-67 220 97 12 79 83 429 87 451 91-28 123-67 119-80 0 0-91-309-92-468zM143 490c9-3 8-3 8-3 34 205-26 240-72 210-56-35-93-161 64-207z"/><glyph glyph-name="R" unicode="R" horiz-adv-x="722" d="M183 154c13 38 24 91 34 150-68 34-44 92 15 103 18 132 28 258 28 258 0 12 43 37 137 33-2-16-20-167-44-317 23-10 58-42 58-42 182 69 187 377-72 411-154 20-272-149-187-301-52 12-73 49-75 59-53 220 317 382 509 208 130-118 71-361-136-425 78-89 140-198 302-265-205-83-282 109-367 254-16-1-32-1-49 0-8-46-16-88-24-118C259-41 139-53 0 77c1 4 16 22 17 21 75-66 114-97 166 56zm37 171c3 19 6 39 9 59-35-12-50-44-9-59zm139-2c-2 3-4 5-5 8-3 3-5 6-7 9-1-6-2-13-3-19 5 0 10 1 15 2z"/><glyph glyph-name="H" unicode="H" horiz-adv-x="638" d="M500 175C503 4 574 30 665 71c1 0 3-27 3-31C483-61 369 5 380 227c2 27 3 44 8 78-18 3-82 21-123 36-12-54-53-243-67-309-7-38-81-43-139-31 41 126 96 332 106 385C-15 483-20 616 24 689c46 75 182 86 237 10 50-70 37-175 14-309 41-17 81-29 119-38 22 158 63 352 66 371 92-29 124-67 121-80 0 0-43-160-66-308 13-1 24 0 32 1 13-60-29-53-39-52-6-44-8-75-8-109zM175 428c43 244-52 298-108 262-54-35-71-153 108-262z"/><glyph glyph-name="G" unicode="G" horiz-adv-x="557" d="M218 83C375 9 399 354 400 447c63-14 119-27 118-40-8-146-26-303-58-446-109-429-464-77-114 9 13 50 23 106 30 164C339 70 282 3 199 10-13 29-50 357 65 573c98 181 239 209 334 169 201-83 82-326-142-248 163 6 258 206 136 227-85 15-177-92-208-165-58-136-90-415 33-473zM337-63c-101-32-119-93-102-114 16-21 65-4 102 114z"/><glyph glyph-name="M" unicode="M" horiz-adv-x="902" d="M280 212zm482-44c7-170 80-126 169-86 2 1-2-31-2-35C747-53 632 12 637 233c2 74 10 137 25 237-37-39-205-301-243-198-41 112-66 216-81 280-15-96-29-194-48-291 45-14 54-27 49-75-20 10-40 19-59 26-12-51-26-100-43-131-133-255-418 156-69 193 30 140 48 288 62 428 2 19 136 56 141 16 11-90 55-303 80-366 10-24 211 252 249 366 11 35 130-47 126-68 0 0-70-324-64-482zm-604 65C-22 227 7 77 63 68c53-9 86 128 95 165z"/><glyph glyph-name="F" unicode="F" horiz-adv-x="540" d="M431 642c-2-16-12-139-30-265 56-2 105-6 126-6 1-26-59-34-132-35-9-60-19-119-32-163C305-38 177-57 34 108c1 4 13 26 14 25 73-72 131-121 186 37 15 43 29 104 41 169-46 2-86 4-103 4-1 24 47 33 110 35 22 133 37 268 39 291-95 32-182 67-241 24-96-72-19-230 174-233 12 0-31-69-102-56-177 31-213 272-35 331 184 62 377-101 627-16-16-34-39-76-72-91-69-30-167-4-241 14z"/><glyph glyph-name="E" unicode="E" horiz-adv-x="523" d="M408 256c41 3 169-95-11-227-68-50-188-49-257-30-196 53-181 349 19 445-174 154 20 385 223 304 73-29 116-150-22-163 55 76 61 151-38 151-144 1-195-187 9-319C165 405 27 115 204 19c112-60 247 113 204 237z"/><glyph glyph-name="N" unicode="N" horiz-adv-x="664" d="M215 685c3 73 140 84 141 34 0-253 73-456 141-593 2 145 9 320 37 466 41 214 196 183 326 41-1-4-3-7-4-6-75 70-170 111-214-54-37-141-47-531-47-532 6-20-71-66-112-30-42 38-146 375-163 450 0 0-10-98-30-199 45-15 54-28 49-76-21 11-40 20-59 27-12-52-27-100-43-132-134-255-418 157-68 194 29 139 42 311 46 410zm-99-578c17 32 32 76 44 127-237-6-116-262-44-127z"/><glyph glyph-name="S" unicode="S" d="M307 730c-139-5-133-160-84-245 47-81 116-120 151-210C433 124 353-1 199-11-73-28-51 382 181 282 10 250 22-33 182 21c98 33 131 183 37 270-95 89-168 217-126 348 28 86 110 124 195 121 190-6 181-314-62-217 188 50 182 191 81 187z"/><glyph glyph-name="A" unicode="A" horiz-adv-x="714" d="M574 224c0-124 14-230 169-161 1 1 1-28 1-32-242-133-306 31-283 246-25 11-51 19-89 23C305 144 237-6 107 1-19 9-118 333 325 347c85 190 161 393 222 408 35 9 97-54 92-78 0 0-47-200-61-360 18-6 93-38 33-117-12 9-25 16-37 24zm-265 83C67 309 14 202 45 142c34-65 165-75 264 165zm79 40c28 0 80-7 80-7 13 95 39 234 54 309 0 0-103-209-134-302z"/><glyph glyph-name="Q" unicode="Q" horiz-adv-x="591" d="M97 584c15 101 108 190 234 177C679 725 645 53 260-2c74-45 156-107 285-44C342-279 240 9 55-16c17 17 34 29 50 37-151 109-125 516-8 563zm279-160c-44-68-160-106-224-43-18 18-32 40-40 64-54-191 1-404 131-404 203 0 304 670 92 680-193 9-268-425 41-297z"/><glyph glyph-name="O" unicode="O" horiz-adv-x="596" d="M98 584c15 101 108 190 234 177C704 723 639-42 176-5-51 14-35 531 98 584zm279-160c-44-68-160-106-224-43-18 18-32 40-40 64-54-191 1-404 131-404 203 0 304 670 92 680-193 9-268-425 41-297z"/><glyph glyph-name="P" unicode="P" horiz-adv-x="626" d="M185 158c14 37 28 90 39 148-66 35-40 93 19 103 22 131 36 256 36 256 1 12 44 36 139 31-2-15-26-165-55-314 23-10 57-42 57-42 184 67 199 373-58 409-154 21-266-146-197-297-52 12-72 49-74 59-46 218 330 377 517 202 110-104 71-303-81-391-55-32-120-43-184-41-10-45-19-86-28-116C255-36 134-48 0 83c1 4 15 20 16 19 73-66 113-95 169 56zm44 169c3 20 7 39 10 59-35-11-52-43-10-59zm138-2c-2 2-3 5-5 7-2 4-4 7-6 10-2-7-3-13-4-20z"/><glyph glyph-name="X" unicode="X" horiz-adv-x="450" d="M426 71s-63-81-85-52c-31 41-68 111-105 195C188 162 94 44 24 0L0 30c78 42 216 232 216 232-60 147-116 325-139 465 111 33 146 27 148 6 11-112 39-236 73-346 89 148 119 265 112 338 0 0 47 18 71 9 13-46-37-225-161-412 32-89 68-173 106-251z"/><glyph glyph-name="ampersand" unicode="&amp;" horiz-adv-x="644" d="M484 325c147-46 62-398-330-311-215 47-198 300 17 384-161 133 19 333 207 263 68-24 108-129-20-141 51 66 57 131-35 131-134 1-214-145 14-239-131-9-309-162-203-293 190-236 597 132 159 164-5 0-3 16-4 21 185 10 458 189 221 353 252-13 187-259-26-332z"/><glyph glyph-name="at" unicode="@" horiz-adv-x="764" d="M375 399c-68-25-91-202-51-220 84-38 120 246 51 220zm241-246c-73-57-157-54-194 42-28-56-74-98-135-92-105 10-99 279 31 341 39 19 81 18 107-14l3-3c2 9 5 18 8 28 68-20 84-31 81-40-66-262 18-302 86-240 176 159 11 493-240 456C197 606 79 415 81 233 86-39 363-188 513 43 487-176-45-227 4 268c17 169 163 337 329 391 351 115 506-332 283-506z"/><glyph glyph-name="nine" unicode="9" horiz-adv-x="526" d="M26 122C34 68 94-45 210-3c219 79 201 405 103 493-80 73-181-47-185-122-9-131 146-255 230-20-16-211-216-222-279-119-79 129 73 335 241 320 84-8 144-77 147-171 7-199-119-356-253-410C81-85-57-17 26 122z"/><glyph glyph-name="eight" unicode="8" horiz-adv-x="436" d="M270 335c116 97 11 239-87 186C30 438 411 292 345 81 328 26 285-25 203-35-42-66-71 160 148 283c0 0-79 77-69 158 8 63 58 117 150 125 100 8 191-72 144-170-28-58-103-61-103-61zm-103-74C105 217 34 140 66 67c62-138 307-47 180 106-24 29-52 59-79 88z"/><glyph glyph-name="seven" unicode="7" horiz-adv-x="426" d="M289 470c-8-4-211 16-277 45-25 11-7 66 41 103 258-122 322-63 334-54 37 34 77-12 44-29-120-74-182-204-207-269 30-2 97-8 110-8 1-18-77-20-120-21-33-96-71-237-66-288C82-41 56-7 58 2c11 54 56 167 88 237-27 2-112 6-124 6-1 18 95 21 137 22 36 76 120 195 130 203z"/><glyph glyph-name="six" unicode="6" horiz-adv-x="537" d="M417 433c-14 54-85 159-196 105C11 436 64 114 170 37c88-64 175 66 172 141-5 131-173 238-231-5-7 211 191 244 265 148 92-119-38-341-206-343C85-23 18 39 5 132c-27 198 81 367 209 435 126 66 271 14 203-134z"/><glyph glyph-name="five" unicode="5" horiz-adv-x="560" d="M464 543c26-63-20-107-20-107s-30 50-106 48c-76-3-135-10-135-10l-46-146s259 56 284-160C466-52 81-154 9 24c-34 83 40 137 54 140C52 72 98-42 186-38 405-28 445 285 81 244c0 0 80 259 77 263-79 75 36 115 42 54 54-8 236 50 264-18z"/><glyph glyph-name="four" unicode="4" horiz-adv-x="470" d="M308 520L59 236c58-12 144-11 187-18 10 56 59 244 62 302zm-66-349c-65 0-174-2-200-5-39-6-52 65-34 87l295 317c6 6 111-22 107-39-23-92-52-220-69-327 15-4 36-11 50-17 0 0 1-23-5-22-21 3-38 3-51 4-17-107-32-187-34-197-86 23-97 49-94 59 0 0 15 52 35 140z"/><glyph glyph-name="three" unicode="3" horiz-adv-x="537" d="M75 169C35 117 66-55 244-33c157 20 175 250-33 232-27-2-10 86-10 86 227 49 155 242 60 245-61 2-130-68-93-162-130 26-54 164 55 185 220 44 336-178 77-275C556 212 478-82 174-65-37-54-36 124 75 169z"/><glyph glyph-name="two" unicode="2" horiz-adv-x="515" d="M136 328s-91 25-79 95c31 175 369 164 355-15-12-159-139-192-247-262 0 0 170-16 208-36 38-21 32-22 32-22L350 0S151 106 83 76c-112-49-94 59-37 63 0 0 98 14 201 122 236 249-231 369-111 67z"/><glyph glyph-name="one" unicode="1" horiz-adv-x="336" d="M133 471L38 358l-38 6 138 181c5 6 116-34 111-49-28-87-81-478-83-496-77 20-89 43-88 52 0 0 9 182 55 419z"/><glyph glyph-name="zero" unicode="0" horiz-adv-x="515" d="M245 40c81 7 121 107 110 228s-70 219-151 212S87 375 99 254c11-121 65-221 146-214zm29 481C561 496 478-24 172 1-109 23-22 546 274 521z"/><glyph glyph-name="question" unicode="?" horiz-adv-x="434" d="M179 342c119 55 153 129 143 190-39 227-396 46-181-83-254-40-136 271 141 235 197-26 218-242-52-359-152-66-88-182-59-192-120-23-186 120 8 209zM111 87c28-9 41-41 30-72-11-30-42-48-70-39S29 17 40 47c11 31 43 49 71 40z"/><glyph glyph-name="dollar" unicode="$" horiz-adv-x="423" d="M285 568h-4c-10-43-18-84-26-124 127 43 114 126 30 124zm-69-135c7 42 15 84 22 127-80-27-70-118-31-171l2-2 7 43c-2 0-4 1-6 1 2 1 4 1 6 2zm35-12c-4-23-9-45-13-68 39-38 83-66 109-118 54-108-18-198-157-207-5-36-9-72-14-110l-50-14c8 41 15 83 22 124-213 16-184 282 19 213C16 218 20 28 151 47c12 71 24 142 36 212-80 64-137 153-101 242 24 57 87 85 157 88l15 92 40-35c-4-19-8-39-13-58 147-17 143-198-34-167zm-32-187c-9-56-17-113-25-174 65 33 84 116 25 174z"/><glyph glyph-name="percent" horiz-adv-x="491" d="M443 451C270 253 178 192 42 26L19 62c81 102 211 190 334 359-41-14-75-2-98 13-12-70-68-138-157-132-152 12-116 261 31 278 36 4 60-22 30-29-12-2-32 12-56 4-39-12-65-63-59-121 6-65 49-114 96-111 46 4 78 60 72 125-2 17-6 34-13 48 8 35 40 40 53 6s42-106 134-34c8 12 16 25 24 38 32 52 69-13 33-55zm-69-209c165-13 117-291-58-278-161 13-112 292 58 278zM357-14c47 3 79 59 73 124-7 64-50 114-96 110s-79-59-72-124c6-65 49-114 95-110z"/><glyph glyph-name="backslash" unicode="\" horiz-adv-x="264" d="M0 739l35 41C123 505 201 263 287 0l-51 7C158 286 105 468 0 739z"/><glyph glyph-name="slash" unicode="/" horiz-adv-x="289" d="M385 696C244 441 166 268 52 1L0 0c121 250 231 479 356 741z"/><glyph glyph-name="braceright" unicode="}" d="M303 237c-16-9-29-22-37-40-71-168 65-321-189-337-5 0-45-2-64-3-5 0-12 16-13 16 252 6 108 173 187 342 14 29 48 44 86 51-164 65-36 185-76 347-16 68-115 83-115 83l3 11c40-4 173-20 193-89 40-142-57-260 24-327 25-22 72-20 106-29 7-2 4-30-8-27-40 8-62 23-97 2z"/><glyph glyph-name="braceleft" unicode="{" horiz-adv-x="342" d="M105 282c-30 26-55 16-96 14-12 0-9 28-2 29 35 2 81-7 110 9 93 52 22 185 90 317 34 65 168 57 207 53l1-11s-99 3-130-61c-71-152 30-293-145-327 36-14 67-34 74-65C258 60 82-78 328-130c-1 1-11-14-15-13-19 4-58 13-63 14C4-68 169 58 133 235c-4 20-14 35-28 47z"/><glyph glyph-name="bracketright" unicode="]" horiz-adv-x="355" d="M3-71c28 2 189-18 192-3 53 259 79 472 109 736 2 14-176 37-186 35l3 57c35-9 239-30 236-50-41-264-87-554-129-833L0-143z"/><glyph glyph-name="bracketleft" unicode="[" horiz-adv-x="263" d="M355 682c-28-2-188 18-191 3C111 426 84 212 54-51c-2-14 185-37 195-35l-3-57C212-135-2-113 1-93c42 264 87 554 130 833l227 14z"/><glyph glyph-name="parenright" unicode=")" horiz-adv-x="289" d="M131 724c22 2 22-8 24-10C491 253 104-86 10-143c-2-1-8 7-10 6 0 0 385 394 131 861z"/><glyph glyph-name="parenleft" unicode="(" horiz-adv-x="211" d="M160-143c-23-2-23 8-25 11-336 460 51 799 145 856 2 1 9-7 10-6 0 0-385-394-130-861z"/><glyph glyph-name="exclam" unicode="!" horiz-adv-x="237" d="M234 662c-6-72-120-494-140-504-8-4-43 5-45 5 33 126 70 460 71 532 70-10 114-23 114-33zM74 87c-27 9-59-9-70-40-11-30 2-62 30-71s60 9 71 39c11 31-3 63-31 72z"/><glyph glyph-name="greater" unicode="&gt;" horiz-adv-x="310" d="M259 316l-5-43C146 238 84 219 0 164l7 53c75 36 91 45 165 82-67 42-81 51-150 92v54c76-61 135-84 237-129z"/><glyph glyph-name="less" unicode="&lt;" horiz-adv-x="317" d="M0 316c102 45 161 68 237 129v-54c-69-41-83-50-150-92 74-37 91-46 165-82l7-53c-84 55-146 74-254 109z"/><glyph glyph-name="equal" unicode="=" horiz-adv-x="398" d="M316 285l14-55c-116-3-218-5-330-10l16 43c110 4 178 13 300 22zm20 104l13-55c-113-3-211-6-319-10l15 42c107 5 172 14 291 23z"/><glyph glyph-name="hyphen" unicode="-" horiz-adv-x="306" d="M249 350l11-55c-92-3-172-6-260-10l13 42c90-7 143 5 236 23z"/><glyph glyph-name="plus" unicode="+" horiz-adv-x="493" d="M277 488c-18-57-31-106-41-154 57 5 114 13 184 21l5-58c-68-1-133-3-196-4-10-53-16-107-23-171l-48-13c12 63 24 123 36 183-64-1-128-3-194-5l21 43c67-4 124-3 181 1 10 55 21 110 32 169z"/><glyph glyph-name="semicolon" unicode=";" horiz-adv-x="169" d="M69 267c73-23-15-154-34-166-12-7 11 63-2 67-25 8-37 37-27 64s38 43 63 35zm-2 175c25-8 37-37 27-64s-38-43-63-35-37 36-27 64c10 27 38 43 63 35z"/><glyph glyph-name="colon" unicode=":" horiz-adv-x="158" d="M67 267c25-8 37-36 27-64-10-27-38-43-63-35s-37 37-27 64 38 43 63 35zm0 175c25-8 37-37 27-64s-38-43-63-35-37 36-27 64c10 27 38 43 63 35z"/><glyph glyph-name="underscore" unicode="_" horiz-adv-x="355" d="M318-33l14-55C215-91 112-94 0-98l16 42c116-7 182 5 302 23z"/><glyph glyph-name="numbersign" unicode="#" horiz-adv-x="599" d="M486 540c-26-67-47-127-66-185 43-1 88-1 134-2l-16-41c-47 4-89 7-130 9-17-56-33-110-49-166 63-1 128-2 195-3l-16-41c-69 6-130 10-188 12-14-53-28-108-43-168l-51-10c19 61 38 120 56 179-53 1-106 0-161-1-15-53-29-108-44-168L57-55C75 5 94 63 112 122c-30-1-61-3-94-4L0 161c42-1 82-2 123-2l51 165c-49-1-99-3-156-5L0 362c63-2 124-3 184-4 21 69 43 138 65 211l37-29c-25-66-46-125-65-182 54-1 107-2 162-3 21 70 43 140 65 214zM160 158l162-3 51 168c-56 2-108 2-163 2-18-56-34-110-50-167z"/><glyph glyph-name="asterisk" unicode="*" horiz-adv-x="313" d="M359 657l8-55c-55-2-103-4-154-7 27-40 54-78 83-121l-52-26c-23 59-35 94-74 136-49-36-67-69-102-124l-46 34c40 40 76 76 114 115-45 19-88 37-136 58l29 48c52-37 82-60 137-76 14 43 13 78 12 133l59-8c-11-46-21-88-31-131 54-3 91 8 153 24z"/><glyph glyph-name="asciicircum" unicode="^" horiz-adv-x="263" d="M158 689c42-100 81-157 144-234l-51-7c-41 68-57 93-100 160-42-68-57-90-99-159l-52 4c62 77 108 135 151 235z"/><glyph glyph-name="quotedbl" unicode="&quot;" horiz-adv-x="95" d="M40 643l64-13c-5-10-38-108-76-182l-28 7s28 107 40 188zm88 0l64-13c-5-10-38-108-76-182l-28 7s28 107 40 188z"/><glyph glyph-name="quotesingle" unicode="'" horiz-adv-x="79" d="M40 643l64-13c-5-10-38-108-76-182l-28 7s28 107 40 188z"/><glyph glyph-name="comma" unicode="," horiz-adv-x="121" d="M67 99C140 76 52-55 34-67 22-74 45-4 32 0 7 8-6 37 4 64s39 43 63 35z"/><glyph glyph-name="period" unicode="." horiz-adv-x="124" d="M67 101c25-8 38-37 28-64S57-6 32 2-6 38 4 66c10 27 38 42 63 35z"/><glyph glyph-name="a" unicode="a" horiz-adv-x="534" d="M217 427c-91-36-123-290-68-317 113-55 162 355 68 317zM605 96l9-23C438-30 325 12 281 134 243 52 181-8 99 1-42 15-34 403 140 492c53 27 110 26 145-20 1-2 2-3 3-5 4 14 8 27 12 41 90-28 112-45 109-58-76-319-35-480 196-354z"/><glyph glyph-name="u" unicode="u" horiz-adv-x="503" d="M142 105c47 12 103 331 127 409 90-28 112-45 109-58-76-319-35-480 196-354l9-22C402-27 235 36 246 287 145-236-91 24 39 517c91-28 113-45 109-58-49-181-42-364-6-354z"/><glyph glyph-name="v" unicode="v" horiz-adv-x="258" d="M95 122c26 89 125 328 172 387 0 0 28 7 54-16-71-61-172-295-213-486-9-17-76-3-86 27-32 98-27 324 10 468 92-28 117-45 112-57-18-50-45-208-49-323z"/><glyph glyph-name="space" horiz-adv-x="230"/><glyph glyph-name="uni0025" unicode="%" horiz-adv-x="490" d="M444 451C271 253 179 192 43 26L20 62c81 102 211 190 334 359-41-14-75-2-98 13-12-70-68-138-157-132-152 12-116 261 31 278 36 4 60-22 30-29-12-2-32 12-56 4-39-12-65-63-59-121 6-65 49-114 96-111 46 4 78 60 72 125-2 17-6 34-13 48 8 35 40 40 53 6s42-106 134-34c8 12 16 25 24 38 32 52 69-13 33-55zm-69-209c165-13 117-291-58-278-161 13-112 292 58 278zM358-14c47 3 79 59 73 124-7 64-50 114-96 110s-79-59-72-124c6-65 49-114 95-110z"/><glyph glyph-name="a_alt1" horiz-adv-x="928" d="M217 430c-91-37-123-291-68-318 113-55 162 355 68 318zM515 0C407 2 338 34 281 136 243 54 181-6 99 3-42 17-34 405 140 494c53 28 110 26 145-20 1-2 2-3 3-5 4 14 8 27 12 41 90-28 112-45 109-58C379 325 307 29 516 24c167 4 372 291 263 495C1021 442 841-6 515 0z"/><glyph glyph-name="a_alt2" horiz-adv-x="1158" d="M217 429c-91-36-123-290-68-317 113-55 162 355 68 317zm892-345c19-22 17-67-17-149C926 222 743 127 584 60c-52-24-96-37-133-41h-4c-1-1-3-1-4-1h-5c-82-4-129 40-157 117C243 54 181-6 99 3-42 17-34 405 140 494c53 27 110 26 145-20 1-2 2-3 3-5 4 14 8 27 12 41 90-29 112-45 109-58-45-187-49-320 2-372 1-1 2-2 2-3 26-24 64-29 116-13h1c147 55 388 241 579 20z"/><glyph glyph-name="b_alt1" horiz-adv-x="428" d="M250 437C175 517 45 79 170 81c61 2 147 285 80 356zM118 741zm30-289c18 24 38 43 59 54 52 27 104 5 140-42C456 325 340 23 218-2 2-46-17 209 6 366c8 53 22 113 37 173-301 0-624 165-927-45 30 119 167 195 283 194 222-1 505-139 652-120 9 35 19 68 29 97 12 30 25 55 38 76 160 249 427-88 54-186v-1c-10-34-18-68-24-102zm33 131c47 141 102 172 128 156 33-21 17-120-128-156z"/><glyph glyph-name="b_alt2" horiz-adv-x="428" d="M250 437C174 517 44 79 169 81c61 2 148 285 81 356zm-73 126c-11-36-21-74-30-111 18 24 38 43 60 54 51 27 103 5 140-42C455 325 339 23 218-2 1-46-17 209 5 366c11 72 27 140 48 209-222 150-51 488 162 516 193 25 342-124 314-317-338 572-723-22-468-176 9 28 18 55 28 78 163 378 495-22 88-113zm9 28c139 28 164 115 140 145-21 26-80 9-134-131z"/><glyph glyph-name="c_alt" horiz-adv-x="966" d="M150 63C286-42 726 258 912 96c40-36 29-83 33-139C699 197 375-8 151-4c-203-1-195 369-7 487 57 36 126 35 179 5l-59-96C130 423 56 136 150 63z"/><glyph glyph-name="d_alt1" horiz-adv-x="533" d="M217 416c-91-36-123-290-68-317 112-55 165 356 68 317zm221 135c-23-70-37-139-49-212C348 88 401-26 606 86l9-22C438-41 325 2 282 125 244 42 181-19 98-10-42 4-34 392 140 481c53 27 109 26 145-20 0-1 1-2 2-3 6 28 14 55 21 82-301 13-616 190-927-8 34 118 174 188 290 183 222-10 498-160 646-147 11 35 22 67 34 96s26 54 40 74v1c171 242 423-105 47-188zm10 27c140 29 164 120 138 147-23 24-82 1-138-147z"/><glyph glyph-name="d_alt2" horiz-adv-x="534" d="M217 416c-91-36-123-290-68-317 113-55 165 356 68 317zm107 173c9 27 18 52 27 75 13 29 26 54 41 74v1c170 242 423-105 46-188-23-70-37-139-49-212C349 88 402-26 607 86l9-22C439-41 326 2 282 125 244 42 182-19 99-10-42 4-34 392 140 481c53 27 110 26 145-20 1-1 2-2 2-3 7 28 14 55 22 82l8 27c-207 153-37 480 173 507 193 25 342-123 314-317-332 565-712-3-480-168zm124-11c135 28 163 113 141 144-20 28-82 10-141-144z"/><glyph glyph-name="e_alt" horiz-adv-x="971" d="M177 29C300-5 673 218 868 134c62-27 81-112 82-175C690 213 284-30 128 1-53 36-38 406 156 496c164 76 305-79-33-330-1-77 20-128 54-137zm-52 179c140 130 164 195 144 207-27 14-129-63-144-207z"/><glyph glyph-name="f_alt1" horiz-adv-x="400" d="M269-20C487-6 681-71 887-95c189-23 355-6 531 76-108-212-307-200-446-181C752-168 465-41 262-50c-111-414-458-67-111 19 19 74 33 170 42 263-82-8-74-8-96 55 0 0 39-21 99-23 7 76-1 402 138 378 124-21 76-238-7-367 27 6 51 13 72 19 0-11 0-21-6-23-27-10-53-18-83-26-9-89-22-177-41-265zm45 311c80 134 74 299 53 293-34-9-49-251-53-293zM142-64C45-95 25-153 39-176c14-25 65-11 103 112z"/><glyph glyph-name="f_alt2" horiz-adv-x="402" d="M265-39c-1-2-1-4-2-6 240-74-49-492-288-389-65 28-128 99-135 193 266-297 643 96 417 173-118-383-447-46-106 39 19 73 33 170 42 262-82-7-74-7-96 56 0 0 40-21 99-23 7 76-1 401 138 378 124-21 76-237-6-366 26 6 51 12 71 19 1-12 0-22-6-24-27-9-53-17-83-25-10-97-23-192-45-287zm49 333c80 134 74 298 53 292-34-9-49-250-53-292zM142-62C38-95 23-160 43-179c18-17 64 3 99 117z"/><glyph glyph-name="g_alt1" d="M217 427c-91-36-123-290-68-317 112-55 171 358 68 317zM337-52c-109-429-464-78-114 9 8 34 16 74 23 117C209 25 159-6 99 1-42 15-34 403 140 492c52 27 106 26 142-16 0 11 0 22 1 31 63-13 119-27 118-40-2-41-21-316-58-490 404 38 726-206 1175 3-118-231-345-196-482-174C778-155 539-30 337-52zM214-76c-102-32-119-95-101-116 17-19 65-1 101 116z"/><glyph glyph-name="g_alt2" d="M217 427c-91-36-123-290-68-317 112-55 170 358 68 317zM332-67c-113-406-456-62-110 24 9 34 16 74 23 117C208 25 158-6 98 1-42 15-34 403 140 492c51 27 106 26 141-16 1 11 1 22 1 31 64-13 119-27 118-40-8-164-26-351-62-511 267-60-29-498-273-393C1-409-62-338-70-245 202-547 589-132 332-67zm-119-9c-102-32-119-95-101-116 18-19 65 0 101 116z"/><glyph glyph-name="h_alt1" horiz-adv-x="486" d="M556 97l9-22C187-148 222 297 222 315c-39-63-69-166-116-308-15-17-76-3-85 27-43 154-5 375 46 541-224 150-52 488 161 515 193 25 343-123 314-317-337 573-723-21-468-175 9 28 19 55 28 78 164 378 495-23 87-113-43-131-82-336-90-441 35 105 132 361 179 362 26 1 84-22 81-33-75-319-34-480 197-354zM199 591c139 28 164 115 140 145-22 26-81 8-134-131-2-5-4-10-6-14z"/><glyph glyph-name="h_alt2" horiz-adv-x="487" d="M558 97l9-22C189-148 223 297 224 315c-39-63-69-166-116-308C94-9 32 4 23 34c-41 146-9 355 38 518-301 13-616 190-927-8 34 118 174 188 290 183 222-10 498-160 646-147 11 35 22 67 34 96 164 378 495-23 87-113-44-131-82-336-91-441 36 105 133 361 180 362 25 1 84-22 81-33-76-319-35-480 197-354zM201 591c136 27 163 114 140 144-21 27-82 7-140-144z"/><glyph glyph-name="i_alt1" horiz-adv-x="631" d="M107 709c90-28 104-64 101-76-10-44-31-105-43-148-146 39-58 224-58 224zM305 5c294 38 442 444 214 516C627 317 422 30 255 27c-78 1-117 45-134 105-14 69-3 175 29 308 3 13-19 29-109 58-54-175-53-327-1-414C93-4 214-7 305 5z"/><glyph glyph-name="i_alt2" horiz-adv-x="858" d="M180 41C317-8 607 344 846 68c19-22 16-67-18-149-250 434-504 3-717 93C-5 62-31 255 41 490c90-29 112-45 109-58-52-217-49-361 30-391zm-15 436c-146 39-58 224-58 224 90-28 104-64 101-76-10-44-31-105-43-148z"/><glyph glyph-name="j_alt1" horiz-adv-x="355" d="M330 497c-150 18-89 214-89 214 94-16 112-49 111-62-4-44-17-108-22-152zM262-50c-112-413-458-66-111 20 39 152 57 404 57 509 64-14 119-27 119-40-8-149-26-313-58-459C492-3 690-69 900-94c29-4 60-7 90-8 137-8 281 9 441 84-109-212-308-200-446-181-13 2-25 4-37 6-16 2-31 5-47 8C667-140 449-35 262-50zM142-63C36-97 22-163 44-181c18-15 64 6 98 118z"/><glyph glyph-name="j_alt2" horiz-adv-x="356" d="M329 496c-149 18-88 214-88 214 93-16 111-49 110-62-4-44-16-108-22-152zM257-68c-117-386-448-48-106 37 39 152 56 404 57 509 64-14 119-27 118-40-7-150-25-338-63-483 252-68-40-494-281-390-65 27-128 98-135 192C116-542 497-140 257-68zm-115 4C40-96 23-158 41-179c16-20 65-3 101 115z"/><glyph glyph-name="k_alt1" horiz-adv-x="401" d="M187 563c-43-130-83-306-94-441 36 105 133 361 180 362 26 1 35-1 47-1 0 0-66-74-103-160-14-161 65-346 299-235l5-13C290-61 192 46 151 154c-16-45-33-94-50-147 9-17-76-3-85 27-38 136 1 378 41 518-301 13-617 191-928-8 34 119 174 189 290 183 223-10 499-159 647-146 11 34 22 67 33 96 164 377 496-24 88-114zm10 28c132 27 161 110 141 142-18 30-82 14-141-142z"/><glyph glyph-name="k_alt2" horiz-adv-x="399" d="M186 563c-43-130-83-307-93-441 36 105 132 361 179 362 26 1 35-1 48-1 0 0-67-75-104-160-13-161 79-366 298-233l6-15C290-61 191 46 150 153c-16-45-33-93-50-146C79-9 24 4 16 34c-41 141-3 378 52 555-185 157-18 471 186 497 193 25 343-123 314-317-325 553-696 19-492-157 7 23 15 44 23 64 164 378 495-23 87-113zm10 28c136 27 163 114 140 144-21 27-82 7-140-144z"/><glyph glyph-name="m_alt1" horiz-adv-x="1077" d="M933 517C1175 440 995-9 669-2c-81 1-138 5-186 58-60 63-61 180-61 259-48-78-59-139-89-223-14-38-23-75-59-35-72 81-60 247-60 258-38-63-69-166-116-308-19-17-76-3-84 27-28 98-11 323 33 468 90-28 114-45 109-57-21-51-56-209-65-323 36 105 133 361 180 362 25 1 83-22 81-33-27-113-39-206-33-274 43 120 120 306 160 307 25 1 83-22 81-33-30-125-97-425 110-429 167 3 372 291 263 495z"/><glyph glyph-name="m_alt2" horiz-adv-x="1298" d="M678 63c146 54 387 241 579 20 19-23 16-68-18-149-245 424-528 13-717 92-98 48-101 195-100 289-48-78-59-138-89-222-14-39-23-76-59-36-73 81-60 247-60 258-39-63-69-166-116-308-19-17-76-3-84 27-28 98-12 324 32 468 91-28 114-45 110-57-21-50-56-208-65-323 36 105 132 361 179 362 26 1 84-22 82-33-27-113-39-206-34-274 44 120 120 306 161 307 25 1 83-22 81-33C536 351 456-19 678 63z"/><glyph glyph-name="n_alt1" horiz-adv-x="870" d="M352 452c-22-94-53-252-18-343 19-50 58-85 127-86 167 3 373 290 264 494C955 444 803 32 504 0 262-26 212 96 215 315 176 252 146 149 99 7c-7-17-76-3-85 27-28 98-11 324 33 469 91-29 114-46 109-58-21-50-55-208-65-323 36 105 133 361 180 362 26 1 84-22 81-32z"/><glyph glyph-name="n_alt2" horiz-adv-x="1096" d="M1031-66C787 358 504-53 314 26c-116 58-100 277-99 289-39-63-69-166-116-308-7-17-76-3-85 27-28 98-11 324 33 469 90-29 114-46 109-58-21-50-56-208-65-323 36 105 133 361 180 362 25 1 84-22 81-32C328 350 247-19 470 63c147 54 388 241 579 20 19-22 17-67-18-149z"/><glyph glyph-name="o_alt1" horiz-adv-x="687" d="M338 431C94 528 55 57 184 73c92 12 141 163 125 231-129 4-69 132-1 104 34-14 47-47 50-84 198 27 262 138 273 261 27-46 56-143 14-189-66-73-219-96-287-96-1-41-12-80-21-110C304 85 230-5 120 0-39 7-49 395 143 493c58 30 122 32 164-12 12-14 23-30 31-50z"/><glyph glyph-name="o_alt2" horiz-adv-x="971" d="M338 431C94 528 55 57 184 73c92 12 141 163 125 231-130 4-69 132-1 104 31-13 45-41 49-74 198 49 439 155 543 25 28-34 28-84 42-126-177 172-392 122-584 78 1-43-11-90-21-121C304 85 230-5 120 0-39 7-49 395 143 493c58 30 122 32 164-12 12-14 23-30 31-50z"/><glyph glyph-name="p_alt1" horiz-adv-x="454" d="M278 438C202 518 73 80 197 82c61 1 148 285 81 356zM7-51c-8 210 52 513 82 598 46-4 120-26 114-39-3-7-7-20-12-36 14 15 29 27 44 35 52 27 103 5 140-42C496 311 339-45 206 1c-44 15-73 47-90 89-2-10-18-136-16-136 187-86 62-257-29-205-39 22-58 89-63 175-396-48-901-380-1125 56C-849-234-356-77 7-51zm85-24c-16-128 20-152 45-133 29 21 43 94-45 133z"/><glyph glyph-name="q_alt1" horiz-adv-x="438" d="M217 443c-91-36-123-290-68-317 109-53 169 358 68 317zM-914 4c271-220 778-56 1142-36-5 34-6 68-4 97-34-34-76-53-126-48-140 14-132 402 42 491 53 27 109 26 145-20 9-12 16-27 22-44 9 26 17 50 25 69 90-28 104-64 101-76-26-100-64-218-83-331-9-49-13-97-14-140 212-57 66-238-45-143-30 26-49 72-59 121C-167-91-689-442-914 4zM336-61c4-105 53-105 71-79 15 23 8 66-71 79z"/><glyph glyph-name="s_alt" horiz-adv-x="358" d="M114 244c-11 93-14 282 107 265 45-6 96-29 107-77 26-119-73-294-72-299 24-203-15-322-150-274-289 103-642 88-907-100 12 82 43 138 92 153 251 76 543 59 794-17 117-35 47 198 29 349zm133-68c71 168 59 249 35 247-23-2-58-86-35-247z"/><glyph glyph-name="t_alt1" horiz-adv-x="289" d="M362 81l9-22C112-94-10 68 22 334c5 45 15 95 28 143-30 8-49 14-49 14l-1 27s23-5 57-10c18 64 37 124 52 166 91-29 105-64 101-77-9-34-18-67-27-100 302-31 492 334 291 469-21 14 201 9 195-149-6-148-227-372-496-355-13-47-25-100-33-151C105 77 163-27 362 81z"/><glyph glyph-name="u_alt" horiz-adv-x="1025" d="M370 29c-46 21-82 52-104 93-19 41-28 93-25 159C140-242-91 34 39 527c90-29 112-45 109-58-50-181-47-380-10-371 46 12 102 331 126 409 91-28 112-45 109-57-33-140-92-360 85-424 269-95 584 144 462 214 123 24 150-107-8-178C756-8 516-37 370 29z"/><glyph glyph-name="y_alt1" horiz-adv-x="385" d="M297-25c218 14 413-50 619-75 30-4 60-7 90-8 137-7 281 10 441 84-109-212-307-200-446-180-13 2-25 3-37 5-16 3-31 5-47 8C688-147 474-45 290-55c-112-414-459-67-111 19 14 56 25 124 34 194C104-202-80 67 39 519c90-28 112-45 109-58-50-181-47-380-10-371 38 10 92 241 98 383 0 13 119-30 118-40-7-148-25-312-57-458zM170-69C59-104 49-175 74-189c20-11 63 13 96 120z"/><glyph glyph-name="y_alt2" horiz-adv-x="385" d="M293-44c249-69-42-494-283-390-65 27-128 98-135 192C143-541 524-140 287-67c-116-395-452-54-108 31 14 56 25 124 34 194C104-202-80 67 39 519c90-28 112-45 109-57-50-182-47-381-10-372 38 11 92 241 98 383 0 13 119-30 118-40-8-155-27-326-61-477zM170-69C61-103 49-172 73-188c19-13 63 10 97 119z"/><glyph glyph-name="l_alt1" horiz-adv-x="274" d="M346 81l9-22C109-86-13 53 3 296c5 85 27 182 55 272-203 154-34 479 175 506 193 25 343-124 314-317-331 562-709 0-481-166 8 24 16 47 25 69 164 377 496-23 88-113v-1c-19-70-38-141-50-212C86 84 141-31 346 81zM188 574c138 28 164 117 139 146-21 25-81 4-139-146z"/><glyph glyph-name="l_alt2" horiz-adv-x="270" d="M348 81l9-22C111-86-11 53 5 296c5 79 24 163 46 239-301 13-617 191-928-7 34 118 174 188 290 183 222-11 499-160 647-147 10 35 22 67 33 96 164 377 496-23 88-113v-1c-19-70-38-141-50-212C88 84 143-31 348 81zM190 574c139 28 164 118 139 146-22 25-82 3-139-146z"/><glyph glyph-name="b_alt3" horiz-adv-x="807" d="M878 86l9-22C610-100 489 98 547 398c-18-8-37-10-54-6-20-27-59-57-107-53 6-144-82-315-172-334C-86-55-4 410 47 578c-222 150-51 488 162 515 193 26 342-123 314-316-338 572-724-22-468-176 9 28 18 55 28 78 163 378 494-22 89-112-10-36-20-72-28-108 17 24 38 43 59 54 52 27 104 5 140-42 23-29 36-65 41-104 32-1 61 16 78 37-48 32-73 112-27 210l87-50c-68-189 37-169 50-66 15-4 115-34 109-57-75-319-34-481 197-355zM315 744c-24 18-80-10-135-150 145 29 166 127 135 150zM165 89c61 1 148 284 81 356-76 80-205-359-81-356z"/><glyph glyph-name="b_alt4" horiz-adv-x="810" d="M249 445C174 525 44 86 169 89c61 1 148 284 80 356zM48 571c16 60 34 122 69 176 160 244 423-91 52-189-8-32-14-65-22-99 18 24 38 43 60 54 51 27 103 5 140-42 22-29 35-65 40-104 33-1 62 16 78 37-48 32-73 112-27 210l88-50c-68-189 37-169 50-66 15-4 115-33 109-57-76-319-35-481 196-355l9-22C613-100 493 98 551 398c-19-8-37-10-54-6-21-27-59-57-107-53 5-144-82-315-173-334C-71-53-3 375 40 542c-301 1-624 165-927-45 30 119 167 195 283 194 222-1 505-139 652-120zm130 15c146 36 161 136 127 156-26 15-80-16-127-156z"/><glyph glyph-name="b_alt5" horiz-adv-x="751" d="M624-56c-128-35-127-116-94-134 27-14 74 12 94 134zM180 594c147 29 167 130 133 151-25 16-79-14-133-151zm-10-28c-10-36-18-70-27-107 18 24 38 43 60 54 51 27 103 5 140-42 23-29 35-65 40-104 29-1 56 12 73 31-45 42-61 122-16 194l88-50c-74-194 95-124 103-65 14-4 89-49 70-63 0 0-96-147-92-151 90-86 138-178 131-303-15-133-120-227-202-211-89 17-119 193 90 232-3 133-132 193-131 197 13 50 90 152 114 217-48-32-93-34-129-16-21-23-55-43-96-40 5-144-82-315-172-334C-86-56-4 410 46 578c-222 150-50 487 163 515 192 26 342-123 314-317-338 573-723-20-469-174 166 506 538 58 116-36zm76-121C170 525 41 86 165 89c61 1 148 284 81 356z"/><glyph glyph-name="b_alt6" horiz-adv-x="755" d="M629-55C511-89 502-160 528-184c24-24 79-5 101 129zM48 570c16 63 37 128 73 181 161 235 418-96 50-193l-1-1c-10-33-14-65-22-98 18 24 38 43 60 54 51 27 103 5 140-42 22-29 35-65 40-104 29-1 55 13 73 31-45 42-61 122-16 194l87-50c-74-194 96-124 104-64 14-5 88-49 70-64 0 0-96-146-92-151 90-86 138-178 130-303-14-133-119-227-201-211-89 17-119 193 90 233-4 132-132 193-131 197 13 49 90 151 113 217-47-33-93-35-128-17-22-22-55-43-96-40 5-144-82-315-173-334C-71-53-1 375 40 542c-301 1-623 165-926-45 30 119 167 195 283 194 222-1 503-139 651-121zm131 16c140 34 160 128 131 153-24 21-81-6-131-153zm71-141C175 525 45 86 170 89c61 1 148 284 80 356z"/><glyph glyph-name="d_alt3" horiz-adv-x="946" d="M221 428c-91-36-123-290-68-317 112-55 165 356 68 317zm230 164c146 29 167 127 135 150-25 17-81-10-135-150zm-10-28c-23-69-36-141-48-213-10-56-44-304 71-288 111 16 140 224 147 331-55 26-87 110-37 215l87-50c-68-189 37-169 51-66 14-4 114-34 109-57-76-319-35-481 196-355l9-22C749-105 628 93 686 393c-18-8-36-10-54-6-7-101-20-366-185-370-80-2-134 43-161 120C248 54 185-7 102 2-38 16-30 404 144 493c53 27 109 26 145-20 0-1 1-3 2-4 6 29 13 56 21 84-301 13-617 190-928-8 34 119 174 188 290 183 222-10 499-160 646-147 166 534 547 77 121-17z"/><glyph glyph-name="d_alt4" horiz-adv-x="942" d="M217 428c-91-36-123-290-68-317 113-55 165 356 68 317zm466-35c-19-8-37-10-54-6-8-101-21-366-185-370-80-2-135 43-162 120C244 54 182-7 99 2-42 16-34 404 140 493c53 27 110 26 145-20 1-1 2-3 3-4 8 39 17 73 28 111-206 153-36 480 173 508 193 25 342-124 314-318-332 565-712-3-479-167 163 498 538 55 114-39-29-86-133-522 22-501 111 16 140 224 148 331-55 26-87 110-38 215l88-50c-68-189 37-169 50-66 15-4 115-34 109-57-76-319-35-481 196-355l9-22C745-105 625 93 683 393zM448 592c141 28 165 121 137 147-23 22-82-2-137-147z"/><glyph glyph-name="d_alt5" horiz-adv-x="873" d="M217 427c-91-36-123-291-68-318 112-54 165 357 68 318zM746-56c-134-38-126-125-88-136 27-9 70 22 88 136zm116 15c-15-133-119-226-202-211-88 17-119 194 90 233-3 133-132 193-131 197 14 50 90 151 114 217-38-26-75-33-106-25-8-110-27-350-184-354-80-3-134 43-162 120C244 53 181-8 98 0-42 15-34 403 140 492c53 27 109 26 144-21l3-3c8 38 17 73 29 111-207 153-37 480 173 507 192 25 342-123 313-317-332 565-712-3-479-167 9 26 18 51 27 74 162 374 489-25 87-113-22-67-39-144-48-214-8-56-44-303 70-287 107 15 138 206 147 316-65 32-96 128-44 214l88-51c-74-193 95-123 103-64 15-5 89-49 71-64 0 0-96-146-92-150 90-87 137-179 130-304zM447 591c147 29 167 128 134 150-25 17-81-12-134-150z"/><glyph glyph-name="d_alt6" horiz-adv-x="871" d="M215 427c-91-37-123-291-68-318 113-55 165 357 68 318zm231 163c142 29 165 123 136 148-23 21-81-3-136-148zm-10-27c-23-70-37-142-49-214-10-56-44-303 71-287 106 15 137 206 146 316-65 32-96 128-43 213l87-50c-74-194 96-124 104-64 14-5 89-49 70-64 0 0-96-146-92-151 90-86 138-178 130-303-14-133-119-227-201-211-89 17-119 193 90 233-3 132-132 193-131 197 13 49 90 151 114 217-39-27-75-33-106-25-8-110-27-351-184-355-80-2-135 44-162 120C242 53 179-8 97 0-44 15-36 403 138 492c53 27 109 25 145-21l2-3c6 27 13 56 21 84-301 12-617 190-928-8 34 118 174 188 290 183 223-11 499-160 647-147 11 35 22 67 33 96 162 372 498-23 88-113zM745-56c-121-34-127-109-99-131 26-20 78 1 99 131z"/><glyph glyph-name="g_alt3" horiz-adv-x="820" d="M217 428c-91-37-123-291-68-318 112-54 171 359 68 318zm344-35c-18-8-37-10-54-6-21-29-63-60-116-51-9-106-25-251-48-358 404 37 726-207 1175 3-118-232-345-196-482-175C778-155 539-30 337-52c-109-429-464-77-114 9 8 34 16 74 23 118C209 26 159-5 99 1-42 16-34 404 140 493c52 26 106 25 142-17 0 12 0 22 1 32 63-14 119-27 118-40-1-14-3-53-8-105 35-4 65 14 83 37-48 31-73 111-27 209l87-50c-68-189 37-169 50-66 15-4 115-33 109-57-75-319-34-481 197-355l9-22C624-104 503 93 561 393zM214-76c-101-32-119-93-102-114s65-4 102 114z"/><glyph glyph-name="g_alt4" horiz-adv-x="845" d="M218 427c-91-36-123-291-68-317 112-55 170 358 68 317zm367-34c-18-8-37-10-54-7-25-32-75-68-138-45-10-129-27-265-54-385 267-60-29-498-273-393C2-410-61-338-69-245 203-547 590-132 333-67c-113-406-456-62-110 24 9 33 16 74 23 117C209 25 159-6 99 1-41 15-33 403 141 492c51 26 106 26 141-17 1 12 1 23 1 32 64-13 119-27 118-40-1-32-3-66-6-100 43-15 84 5 105 32-49 32-74 112-28 210l88-51c-68-188 37-169 50-65 15-5 115-34 109-58-75-319-34-480 197-355l9-22C647-105 527 93 585 393zM214-76c-102-32-119-95-101-115 17-20 65-2 101 115z"/><glyph glyph-name="h_alt3" horiz-adv-x="865" d="M606 393c-19-8-37-10-54-6-9-126-30-371-158-374-201-5-178 287-178 302-38-63-69-166-115-308C88-8 24 4 16 34c-40 142 0 397 46 542-221 150-49 487 163 515 193 25 343-124 314-317-336 572-722-19-469-174 18 52 38 103 69 150 170 245 424-103 47-186-40-121-83-319-93-442 36 105 133 361 180 362 25 1 83-22 81-33-51-213-49-355 26-389C504 6 526 329 531 394c-55 26-87 110-38 215l88-50c-68-189 37-169 50-66 15-4 115-34 109-57-76-319-35-481 196-355l9-22C668-105 548 93 606 393zM196 591c140 28 165 117 139 146-22 25-80 6-133-132z"/><glyph glyph-name="h_alt4" horiz-adv-x="868" d="M55 537c-301 13-617 190-928-8 34 118 174 188 290 183 223-10 499-160 647-147 11 35 22 68 33 96 164 378 496-23 88-113-42-126-79-297-90-426 36 105 133 361 180 362 25 1 84-22 81-33-50-213-49-355 26-389C506 6 528 329 533 394c-55 26-87 110-38 215l88-50c-68-189 37-169 50-66 15-4 115-34 109-57-76-319-35-481 197-355l9-22C670-105 550 93 608 393c-18-8-37-10-54-6-9-126-30-371-158-374-201-5-178 287-177 302-39-63-69-166-116-308C90-8 27 4 18 34c-40 141-5 358 37 503zm140 39c147 29 166 129 133 150-26 16-81-13-133-150z"/><glyph glyph-name="h_alt5" horiz-adv-x="800" d="M674-56C556-89 547-160 572-185c25-23 80-5 102 129zM188 563c-42-127-82-311-93-441 36 104 133 360 180 362 25 0 84-23 81-33-51-213-49-356 26-390C498 9 525 291 532 379c-64 32-95 128-43 213l88-51c-74-193 96-123 104-64 14-4 88-49 70-63 0 0-96-147-92-151 90-87 138-179 130-303-15-133-119-227-201-211-89 16-119 193 90 232-4 133-132 193-131 197 13 50 90 151 113 217-38-27-76-32-107-24-10-129-34-355-157-358-201-6-178 287-178 301-38-62-69-165-115-307C90-9 26 3 18 33c-42 150 0 386 48 542-224 149-52 488 161 515 193 25 343-123 314-317-337 573-723-21-468-175 9 28 18 55 28 78 164 378 495-23 87-113zm10 28c154 31 168 134 130 152-26 13-77-16-124-138z"/><glyph glyph-name="h_alt6" horiz-adv-x="799" d="M672-56c-109-31-124-95-105-123 21-32 82-20 105 123zM183 547c-41-122-79-299-89-426 36 105 133 361 180 362 25 1 83-22 81-32-51-213-49-356 26-390C497 9 524 291 530 379c-64 32-94 128-42 213l88-51c-74-193 95-123 103-64 15-4 89-49 71-63 0 0-96-147-92-151 90-87 137-179 130-304-15-132-119-226-201-211-89 17-120 194 89 233-3 133-132 193-131 197 14 50 91 151 114 217-39-27-76-33-107-24-10-129-34-355-158-359-201-5-177 288-177 302-38-63-69-165-116-308C89-9 25 3 17 33c-38 134-6 358 36 503-301 13-617 191-928-7 34 118 174 188 290 182 222-10 499-159 647-146 10 34 22 67 33 96 164 377 496-24 88-114zm9 28c155 31 169 139 128 153-27 9-78-24-128-153z"/><glyph glyph-name="j_alt3" horiz-adv-x="771" d="M334 500c-150 19-89 214-89 214 93-15 112-49 111-62-5-44-17-108-22-152zm178-107C453 93 574-105 851 59l-9 22C611-45 570 116 646 435c5 24-95 53-109 58-13-103-118-123-51 66l-87 50c-46-98-21-178 27-210-20-26-59-46-100-33 2 26 3 51 5 76 0 13-55 27-119 40 0-105-18-356-57-509-342-84-10-423 106-37 241-71-141-474-410-175 8-93 71-165 135-192C228-535 520-108 268-40c0 1 1 2 1 4 27 118 45 250 55 376 61-20 109 15 133 46 18-3 36-1 55 7zM146-60C109-181 58-196 43-173c-14 23 5 82 103 113z"/><glyph glyph-name="j_alt4" horiz-adv-x="776" d="M330 501c-150 18-89 213-89 213 94-15 112-48 111-61-4-45-16-108-22-152zm179-108C451 94 571-104 849 59l-9 22C608-45 567 117 643 436c6 24-94 53-109 58-13-104-118-123-50 65l-88 51c-46-99-21-179 27-210-20-27-60-47-101-33 2 25 4 51 5 75 1 13-55 27-119 41 0-106-18-357-57-509-347-86-1-433 111-20 187 14 405-90 639-135 16-3 31-6 47-8 12-2 24-4 37-6 138-19 337-31 446 181-160-75-304-92-441-85-30 2-61 5-90 8C690-65 492 1 269-16c25 113 41 237 51 357 61-21 111 14 135 46 17-3 36-2 54 6zM142-59C106-176 58-194 41-175c-18 20-1 83 101 116z"/><glyph glyph-name="k_alt3" horiz-adv-x="832" d="M188 563c-42-128-82-309-93-441 36 105 133 361 180 362 25 1 34-1 47-1 0 0-66-74-103-160-8-88 28-195 89-242C425-9 492 325 497 394c-55 27-86 111-37 216l87-51c-67-188 38-169 51-65 14-5 114-34 109-58-76-319-35-481 196-355l9-22C635-104 514 94 573 393c-19-8-37-9-55-6-4-53-32-370-181-376-106-5-156 69-184 143-16-45-33-94-50-147-6-17-76-3-85 27-39 139 0 374 39 518-301 13-616 190-926-8 34 119 174 188 290 183 221-10 496-158 644-147 160 536 553 78 123-17zm10 28c141 28 165 120 137 147-22 22-81-1-137-147z"/><glyph glyph-name="k_alt4" horiz-adv-x="834" d="M324 483s-67-74-104-160c-7-88 28-195 90-242C426-9 494 325 499 394c-55 27-87 111-38 216l88-51c-68-188 37-169 50-65 15-5 115-34 109-58-76-319-35-481 197-355l9-22C636-104 516 94 574 393c-18-8-37-9-54-6-4-53-32-370-182-376-105-5-156 69-184 143-16-45-33-94-50-147-6-17-76-3-84 27-45 156 1 398 51 555-186 158-19 471 186 497 193 26 342-123 314-317-326 553-697 19-493-157 7 23 15 44 23 64 164 378 495-23 87-113-41-124-81-312-91-441 36 105 132 361 179 362 26 1 35-1 48-1zM198 591c128 25 160 104 144 138-16 35-82 24-144-138z"/><glyph glyph-name="k_alt5" horiz-adv-x="769" d="M643-56C526-89 516-159 541-184c24-25 80-7 102 128zM186 563c-42-127-82-310-92-441 36 105 132 361 179 362 26 1 35-1 48-1 0 0-67-75-104-160-7-88 28-195 90-243C417-5 484 294 494 382c-59 36-86 128-35 210l87-51c-74-193 96-123 104-64 14-4 89-49 70-63 0 0-96-147-92-151 90-86 138-179 130-303-14-133-119-227-201-211-89 17-119 193 90 232-4 133-132 193-131 197 13 50 90 151 113 217-41-28-80-33-113-22-7-80-41-356-181-362-106-5-156 69-184 142-16-44-33-93-50-146-6-17-76-3-85 27-38 136-3 369 40 518-301 13-616 190-927-8 34 118 174 188 290 183 222-10 498-160 646-147 11 35 22 68 34 96 164 378 495-23 87-113zm10 28c152 30 168 136 130 152-27 11-80-21-130-152z"/><glyph glyph-name="k_alt6" horiz-adv-x="769" d="M643-56C524-89 516-161 542-185c25-23 79-4 101 129zM67 589c-185 157-18 471 186 497 193 25 343-123 314-317-325 553-696 19-492-157 7 22 15 44 23 64 164 378 495-23 87-113-41-124-81-313-91-441 35 105 132 361 179 362 26 1 35-1 48-1 0 0-67-75-104-160-7-88 28-195 89-243C417-5 484 294 494 382c-59 36-86 128-35 210l87-51c-74-193 96-123 104-64 14-4 88-49 70-63 0 0-96-147-92-151 90-86 138-179 130-303-14-133-119-227-201-211-89 17-119 193 90 232-4 133-132 193-131 197 13 50 90 151 113 217-41-28-81-33-113-22-8-80-41-356-181-362-106-5-156 69-184 142-16-44-33-93-50-146-6-17-76-3-85 27-41 147 4 404 51 555zm128 1c152 31 168 135 130 153-26 12-79-20-130-153z"/><glyph glyph-name="l_alt3" horiz-adv-x="682" d="M368 387C359 268 306-11 164 0 38 10-16 147 6 335h1c7 67 23 136 42 199-301 13-617 191-928-8 34 119 174 189 290 183 222-10 499-159 646-147 11 35 23 68 34 96 139 320 398 82 227-53l79-46c-68-188 37-169 50-65 15-5 115-34 109-58-75-319-34-480 197-354l9-23C484-104 364 94 422 394c-18-8-37-10-54-7zm-66 207c-30-20-70-37-123-49v-1c-16-57-32-116-43-174-3-12-5-25-7-36-76-443 198-319 218 60-52 25-83 102-45 200zm-114-21c138 27 164 116 140 145-22 26-82 5-140-145z"/><glyph glyph-name="l_alt4" horiz-adv-x="682" d="M369 387C360 268 306-11 164 0 45 9-10 135 4 307c7 87 29 178 55 261-203 154-34 479 175 506 193 25 342-124 314-317-331 563-710 0-482-166 8 24 17 47 25 69 140 320 399 81 226-54l81-47c-68-188 37-169 50-65 14-5 114-34 109-58-76-319-35-480 196-354l9-23C485-104 365 94 423 394c-19-8-37-10-54-7zm-65 209c-31-20-71-37-124-49l-1-1c-23-83-45-167-56-253C70-101 328 27 347 394c-52 26-83 103-43 202zm-115-22c146 30 166 128 134 150-25 18-81-10-134-150z"/><glyph glyph-name="l_alt5" horiz-adv-x="623" d="M344 384c-57 37-81 127-32 207l88-51c-74-193 95-123 103-64 15-4 89-49 71-63 0 0-97-147-92-151 89-86 137-178 130-303-15-133-120-227-202-211-89 17-119 193 90 232-3 133-132 193-131 197 13 50 90 151 114 217-43-29-84-33-118-21C353 249 299-12 161-1-67 16 2 384 47 535c-300 14-615 190-924-8 34 119 174 188 290 183 220-10 494-157 643-147 10 33 23 65 37 97 163 375 495-24 87-114-23-69-41-141-53-214-76-439 193-320 217 52zM496-57c-113-31-125-98-104-125 22-28 82-14 104 125zM190 574c145 29 166 126 135 149-25 19-81-9-135-149z"/><glyph glyph-name="l_alt6" horiz-adv-x="622" d="M495-56c-121-34-127-108-99-131 26-20 78 1 99 131zM179 563c-32-109-65-244-68-359-6-279 211-149 232 181-57 37-81 127-32 207l88-51c-74-193 95-123 103-64 15-4 89-49 71-63 0 0-97-147-92-151 89-86 137-178 130-303-15-133-120-227-202-211-89 17-119 193 90 232-3 133-132 193-131 197 13 50 90 151 114 217-43-29-84-33-118-21C352 250 298-11 160 0 31 10-23 154 5 351c11 75 29 152 52 224-224 149-52 487 161 515 193 25 343-123 314-317-337 573-723-21-468-175 9 28 19 54 28 78 164 378 495-23 87-113zm10 27c145 30 166 123 136 149-23 20-79-2-130-134z"/><glyph glyph-name="p_alt2" horiz-adv-x="842" d="M272 440C197 520 67 82 192 84c61 1 147 285 80 356zm310-46c-18-8-37-10-54-7-22-28-63-60-116-51C419 171 303-32 200 3c-44 15-73 47-90 88-1-9-17-135-16-135 187-86 62-257-28-205C26-227 8-160 2-74c-396-48-901-380-1125 56C-855-232-362-76 1-49c-8 210 52 513 82 597 46-3 120-26 115-38-4-7-8-20-13-36 14 15 29 27 44 35 52 27 104 4 140-43 23-28 36-64 41-102 36-5 68 13 87 36-49 32-74 112-28 210l88-51c-68-188 37-169 50-65 15-5 115-34 109-58-76-319-35-480 197-354l9-22C644-104 524 94 582 394zM86-73c-15-123 17-150 42-136 31 18 50 96-42 136z"/><glyph glyph-name="p_alt3" horiz-adv-x="784" d="M277 440C201 520 72 82 196 84c61 1 148 285 81 356zM115 91c-2-8-20-129-17-129 188-86 63-257-28-205-39 22-58 89-64 175-396-48-900-380-1124 56C-851-226-358-69 5-43 0 109 44 424 88 548c46-3 120-26 114-38-3-7-7-20-12-37 14 15 28 27 44 36 51 27 103 4 140-43 22-28 35-64 40-103 31-1 58 14 75 33-45 42-61 123-16 195l88-51c-74-193 95-123 103-64 15-4 89-49 70-63 0 0-96-147-91-151 89-86 137-179 130-303-15-133-120-227-202-211-89 17-119 193 90 232-3 133-132 193-131 197 13 50 90 151 114 217-48-33-93-34-128-16-22-24-57-47-99-43C423 170 307-32 205 3c-44 15-73 47-90 88zM657-57C540-90 531-159 555-185c24-25 80-7 102 128zM91-67c-16-127 19-151 44-134 29 20 45 95-44 134z"/><glyph glyph-name="q_alt2" horiz-adv-x="853" d="M216 443c-91-36-123-291-68-317 109-54 169 358 68 317zm377-51c-18-7-37-9-54-6-24-31-73-67-134-47-21-75-43-155-56-233-8-50-13-97-14-140 212-57 66-238-44-143-31 26-49 72-60 121C-168-91-689-442-915 4c271-220 778-57 1142-36-5 34-6 68-4 97-34-34-76-54-126-48-140 14-132 402 42 491 53 27 109 26 145-20 9-13 16-27 22-44 9 26 17 50 25 69 90-28 104-64 101-76-6-23-13-48-20-73 39-10 76 10 96 35-49 32-74 112-28 210l88-51c-68-188 37-169 50-65 15-5 115-34 109-58-75-319-34-480 197-355l9-22C655-105 535 93 593 392zM335-61c3-98 46-105 67-84 20 21 18 69-67 84z"/><glyph glyph-name="t_alt2" horiz-adv-x="559" d="M617 81l9-22C499-15 405-14 346 37 115-76 7 82 37 334c7 57 20 118 36 179-56 10-72 16-72 16l-1 32s26-8 82-19c13 46 28 90 43 132 90-29 104-64 100-77-6-25-13-50-20-75 32-5 68-9 108-13 17 63 37 123 52 165 90-28 104-64 101-76-9-35-19-68-28-101 302-31 492 335 291 469-21 14 201 9 195-148-6-149-226-373-496-356-12-47-24-99-32-150C360 78 418-27 617 81zM197 493c-17-60-32-120-41-182C123 98 168-8 327 57c-47 58-64 157-50 277 5 45 15 95 27 144-41 5-76 10-107 15z"/><glyph glyph-name="y_alt3" horiz-adv-x="790" d="M297-16C515-1 710-66 916-91c30-3 60-6 90-8 137-7 281 10 441 84-109-211-307-200-446-180-13 2-25 4-37 6-16 2-31 5-47 8C688-137 474-36 290-45c-112-415-459-68-111 19 14 55 25 124 34 194C104-193-80 76 39 528c90-28 112-45 109-57-50-181-47-381-10-371 38 10 92 240 98 382 0 13 119-30 118-40-1-25-3-51-5-77 40-11 78 9 98 35-48 31-73 111-27 209l87-50c-67-189 38-169 51-66 14-4 114-33 109-57-76-319-35-481 196-355l9-22C595-104 474 93 533 393c-19-8-37-10-55-6-23-31-71-66-131-48-9-119-26-242-50-355zM170-60C70-91 52-151 68-173c15-22 65-7 102 113z"/><glyph glyph-name="y_alt4" horiz-adv-x="800" d="M294-35c250-69-42-495-283-391-64 28-127 99-135 192C144-532 525-131 288-59c-115-394-452-53-108 32 14 55 26 124 34 194C105-193-79 76 40 528c90-29 112-45 109-58-49-181-46-380-10-371 39 10 92 241 98 383 1 13 119-31 119-40-2-25-3-50-5-75 42-16 83 5 104 32-48 31-73 111-27 210l88-51c-68-188 37-169 50-65 15-5 115-34 109-58-76-319-35-481 196-355l9-22C603-105 483 93 541 392c-19-8-37-9-54-6-25-32-75-69-138-45-10-126-28-258-55-376zM171-60C69-92 52-154 70-175c16-20 65-3 101 115z"/><glyph glyph-name="F_swsh" horiz-adv-x="543" d="M431 638c-2-16-12-139-30-265 56-2 105-6 126-6 1-26-59-34-132-35-9-60-19-119-32-163C305-42 177-61 34 104c1 4 1 9 2 8 73-72 142-104 198 54 15 43 29 104 41 169-46 2-86 4-103 4-1 24 47 33 110 35 22 133 37 268 39 291-95 32-182 67-241 24-96-72-19-230 174-233 12 0-31-69-102-56-177 31-213 272-35 331 121 41 273-21 401-41 347-55 793-33 1027 141 14-102-69-186-102-201-66-28-194-144-1012 8z"/><glyph glyph-name="G_swsh" horiz-adv-x="558" d="M217 74C374 1 398 345 399 438c63-13 119-27 118-40-7-141-24-291-55-430 494 43 1003-194 1528-29-363-498-850 76-1535 0C342-470-1-124 345-38c13 49 23 106 30 163C338 61 281-6 198 1-14 20-51 348 64 564c98 181 239 209 334 169 201-83 82-326-142-248 187 7 226 211 137 226-85 15-178-91-209-164-58-136-90-414 33-473zM336-71c-113-36-122-109-94-121 20-9 62 17 94 121z"/><glyph glyph-name="L_swsh" horiz-adv-x="418" d="M1499-32c-29-68-60-125-138-152-307-105-933 69-1126 172-120-286-404 10-94 52 61 214 92 573 94 695 64-13 126-40 125-53-8-161-65-503-112-658 410-180 1035-176 1251-56zM128-6C35-17 15-62 30-80c13-17 57-10 98 74z"/><glyph glyph-name="Q_swsh" horiz-adv-x="591" d="M97 584c15 101 108 189 234 177C679 725 645 53 260-2c771-179 1433-211 1709-13C1813-561 741-68 55-16c17 17 34 29 50 37-151 109-125 516-8 563zm279-160c-44-69-160-106-224-43-18 18-32 40-41 63-53-190 2-403 132-403 203 0 304 670 92 680-193 9-268-425 41-297z"/><glyph glyph-name="T_swsh" horiz-adv-x="500" d="M355 181c3-171 75-145 165-104 1 0 3-27 3-31C338-55 224 11 235 233c6 121 77 377 101 431-99 33-191 74-253 28-98-72-25-229 169-233 12 0-33-68-104-56-176 31-207 272-27 332 120 40 269-21 396-41 347-55 793-34 1027 140 14-102-68-186-102-200-66-29-194-144-1009 7-14-51-81-317-78-460z"/><glyph glyph-name="Y_swsh" horiz-adv-x="539" d="M215 69c138-44 196 542 196 635 64-13 120-27 119-40-11-199-54-502-99-703 490 37 994-195 1515-30-362-496-844 67-1522 1-112-411-457-65-111 21 13 49 36 188 44 245-12-78-78-210-162-202C-11 15 93 409 98 451-25 539-15 664 39 714c67 61 212 54 216-10 4-58-22-149-35-232 0 0 56-17 75-21-35-53-80-38-85-36-28-105-49-329 5-346zM109 513c0-3 22 121 23 124 25 101-34 101-76 55-37-42-33-133 53-179zM304-80c-112-36-121-108-94-121 21-9 62 17 94 121z"/></font>
</defs>
</svg>
